/* XPM */
static const char *dbadd_xpm[] = {
/* columns rows colors chars-per-pixel */
"16 16 157 2",
"j. c #58D247",
"u. c #61CA4A",
"c  c #CACACF",
"z. c #CACAD0",
">  c #C0BFC5",
"y. c #50C144",
"%. c #787878",
"6. c #41AF34",
"o  c #878787",
"F  c #878788",
"0. c #84E96F",
"O. c #5FCA49",
"u  c #B4B4B8",
"i  c #B4B4B9",
"z  c #C3C3C7",
"t  c #D2D2D6",
"w  c #C3C3C9",
"j  c #FAFBFD",
"$  c #FFFFFF",
"|  c #F0F0F3",
"G. c #80807F",
"B. c #808080",
"A  c #8F8F92",
"Z  c #9E9EA0",
"*. c #858488",
"m  c #99979C",
"^  c #E9E9EA",
"J  c #F8F8F9",
"/  c #C1C0C7",
"{  c #D0CFD5",
"g  c #DFDEE2",
"n. c #4DCB3D",
"v  c #797978",
"0  c #797979",
"C. c #7E7D7E",
"1. c #7BDC58",
"S  c #88888B",
";. c #A6A6A8",
"S. c #42AD36",
"c. c #F1F1F4",
"k  c #F1F1F5",
"N. c #818181",
"r. c #50CC3F",
"<. c #5EC848",
":. c #AEAEB1",
"k. c #54BD3D",
"A. c #DBDBDB",
"'  c #EAEAEB",
"l  c #DBDBDE",
"W  c #EAEAEC",
"h. c #C2C1C7",
"h  c #EFEEF1",
"X  c #7A7A7A",
"p. c #77D955",
",. c #5CC845",
"D  c #89898C",
">. c #4BBF3E",
"B  c #B6B6B8",
"6  c #B6B6BC",
"f. c #52BA3C",
"&  c #F2F2F3",
":  c #7D7E7D",
"b  c #828283",
"2. c #89EF73",
"C  c #AFAFB1",
"`  c #5FC949",
"l. c #DCDCDC",
"x  c #BEBEC3",
"b. c #DCDCDF",
"f  c #CDCDD2",
"(  c #EBEBED",
"w. c #71E25E",
"I  c #FAFAFB",
"+  c #EBEBEE",
"3  c #FAFAFC",
".  c #7B7B7B",
"t. c #53BE3A",
"D. c #53BE3B",
"9. c #78DD65",
"m. c #53BB3C",
"O  c #EEEFF0",
"L  c #FDFEFE",
"@. c #62CA4B",
"H  c #FDFEFF",
"=  c #E4E4E6",
"d  c #CBCAD0",
"1  c #E9E8EB",
"9  c #BFBFC4",
"$. c #CECED2",
"s. c #6ACF49",
"K  c #FBFBFC",
" . c #FBFBFD",
"F. c #42A935",
"Y  c #7C7C7B",
"3. c #79DB57",
"V  c #B8B8B9",
"n  c #908F93",
"d. c #54BC3D",
"y  c #B8B8BE",
"<  c #D6D6DA",
"@  c #F4F4F5",
"g. c #40A934",
"r  c #EAE9EC",
"q  c #C2C0C7",
"_  c #72D75F",
"+. c #81E66D",
"7  c #B1B1B6",
"a. c #6EE05B",
"Q  c #4BBE40",
"a  c #C0C0C6",
"M. c #EDEDEE",
".. c #FCFCFC",
"4  c #EDEDF0",
"#  c #FCFCFD",
"]  c #7D7D7C",
"s  c #7D7D7D",
"-. c #9B9B9D",
"N  c #AFAEB0",
"q. c #82ED6D",
"e  c #D7D7DB",
"X. c #F5F5F6",
"v. c #F5F5F8",
"x. c #CDCCD3",
"8. c #62CC49",
"8  c #B2B2B7",
"E  c #D0D0D4",
"R  c #C1C1C7",
"#. c #EEEEEF",
",  c #C1C1C8",
"U  c #FDFDFD",
"-  c #EEEEF0",
"i. c #62C94A",
"%  c #FDFDFE",
"e. c #5ED54C",
"~  c #4CBC40",
"Z. c #7E7E7D",
"V. c #7E7E7E",
"&. c #888689",
"*  c #E7E7E9",
"T  c #BFBEC4",
"[  c #CECDD2",
"2  c #F6F6F8",
";  c #777776",
"   c #868686",
"!  c #5EC946",
"M  c #A4A4A6",
"5. c #54BE3E",
"4. c #59C243",
"p  c #B3B3B8",
"5  c #D1D1D5",
"o. c #EFEFF0",
"}  c #E0E0E3",
"7. c #FEFEFE",
"P  c #FEFEFF",
"G  c #7F7F7F",
"=. c #8E8E91",
")  c #5CC645",
/* pixels */
"  . . . X X X X . . . . . . . o ",
". O + @ # $ $ % & * = = = = - ; ",
": > , < 1 2 3 4 5 6 7 8 8 7 9 0 ",
": q w e r 2 3 4 t y u i i p a 0 ",
"s d f g h j $ k l z x 9 9 x c v ",
"b n m M N B V C Z A S D D D D F ",
"G H J K L $ $ P I U U U U U P Y ",
"s T R < 1 2 3 4 E W Q ! ~ ^ x 0 ",
": / w e r 2 3 4 t ( ) _ ` ' a 0 ",
"] [ { } |  .$ ..X.o.O.+.@.#.$.%.",
"&.*.=.-.;.:.^ >.,.<.1.2.3.4.5.6.",
"G ..2 I 7.$ $ 8.9.0.2.q.w.e.r.t.",
"s T R < 1 2 % y.u.i.p.a.s.d.f.g.",
": h.w e r 2 % I & ( 4.j.k.' #.l.",
"s z.x.} c.P $ v.b.- 5.n.m.M.c 0 ",
"N.G B.G V.C.V.Z.G A.S.D.F.l.G.b "
};
