/* XPM */
static const char *dbrm_xpm[] = {
/* columns rows colors chars-per-pixel */
"16 16 139 2",
"<. c #EF7676",
"c  c #CACACF",
"y. c #CACAD0",
"7. c #C74A4A",
"U  c #F7F7F7",
">  c #C0BFC5",
"o  c #878787",
"F  c #878788",
"5. c #CC4848",
"*. c #CC4849",
"%. c #D14C4C",
"u  c #B4B4B8",
"i  c #B4B4B9",
"z  c #C3C3C7",
"s. c #C3C3C8",
"t  c #D2D2D6",
"w  c #C3C3C9",
"j  c #FAFBFD",
"$  c #FFFFFF",
"_  c #F0F0F3",
"-. c #BB3C3C",
"l. c #80807F",
"g. c #808080",
"A  c #8F8F92",
"Z  c #9E9EA0",
".. c #858488",
"m  c #99979C",
"@. c #E9E9EA",
"J  c #F8F8F9",
"~  c #C1C0C7",
"(  c #D0CFD5",
"g  c #DFDEE2",
"1. c #EB6D6D",
"v  c #797978",
"0  c #797979",
"j. c #7E7D7E",
"S  c #88888B",
"O. c #A6A6A8",
"W  c #B5B5BB",
"}  c #F1F1F2",
"i. c #F1F1F4",
"k  c #F1F1F5",
"3. c #CD4343",
"f. c #818181",
"9. c #BA4041",
"+. c #AEAEB1",
"|  c #DBDBDB",
"r. c #EAEAEB",
"l  c #DBDBDE",
"w. c #C2C1C7",
"h  c #EFEEF1",
"X  c #7A7A7A",
"D  c #89898C",
"B  c #B6B6B8",
"6  c #B6B6BC",
"&  c #F2F2F3",
":  c #7D7E7D",
"b  c #828283",
"C  c #AFAFB1",
"#. c #CC4747",
"d. c #BEBEC2",
"t. c #DCDCDC",
"&. c #D14B4B",
"x  c #BEBEC3",
"a. c #DCDCDF",
"f  c #CDCDD2",
"e. c #EBEBED",
"I  c #FAFAFB",
"+  c #EBEBEE",
"3  c #FAFAFC",
"6. c #CA4A4A",
".  c #7B7B7B",
"q. c #B43A3A",
"O  c #EEEFF0",
"L  c #FDFEFE",
"H  c #FDFEFF",
"=  c #E4E4E6",
"d  c #CBCAD0",
"1  c #E9E8EB",
",. c #E46E6E",
"8. c #C14646",
"!  c #B0B0B5",
"Q  c #B0B0B6",
"9  c #BFBFC4",
"K  c #FBFBFC",
"`  c #FBFBFD",
"Y  c #7C7C7B",
"V  c #B8B8B9",
"n  c #908F93",
"y  c #B8B8BE",
"<  c #D6D6DA",
"@  c #F4F4F5",
"r  c #EAE9EC",
"q  c #C2C0C7",
"7  c #B1B1B6",
"a  c #C0C0C6",
"'  c #FCFCFC",
"4  c #EDEDF0",
"#  c #FCFCFD",
"4. c #CE4343",
"^  c #7D7D7C",
"s  c #7D7D7D",
"o. c #9B9B9D",
"0. c #B63C3C",
"N  c #AFAEB0",
"2. c #DB5555",
"e  c #D7D7DB",
"]  c #F5F5F6",
"p. c #F5F5F8",
"u. c #CDCCD3",
"$. c #CF4A4A",
"8  c #B2B2B7",
"E  c #D0D0D4",
"R  c #C1C1C7",
"{  c #EEEEEF",
",  c #C1C1C8",
"-  c #EEEEF0",
"%  c #FDFDFE",
"k. c #7E7E7D",
"=. c #C34242",
"h. c #7E7E7E",
" . c #888689",
";. c #B73A3A",
"*  c #E7E7E9",
"T  c #BFBEC4",
"/  c #CECDD2",
"2  c #F6F6F8",
";  c #777776",
">. c #D35E5E",
"   c #868686",
"M  c #A4A4A6",
"p  c #B3B3B8",
"5  c #D1D1D5",
"[  c #EFEFF0",
")  c #E0E0E3",
":. c #FEFEFE",
"P  c #FEFEFF",
"G  c #7F7F7F",
"X. c #8E8E91",
/* pixels */
"  . . . X X X X . . . . . . . o ",
". O + @ # $ $ % & * = = = = - ; ",
": > , < 1 2 3 4 5 6 7 8 8 7 9 0 ",
": q w e r 2 3 4 t y u i i p a 0 ",
"s d f g h j $ k l z x 9 9 x c v ",
"b n m M N B V C Z A S D D D D F ",
"G H J K L $ $ P I U U U U U P Y ",
"s T R < 1 2 3 4 E W Q 7 7 ! x 0 ",
": ~ w e r 2 3 4 t y p i i p a 0 ",
"^ / ( ) _ ` $ ' ] [ { { { { } | ",
" ...X.o.O.+.@.#.$.%.&.*.=.=.-.;.",
"G ' 2 I :.$ $ >.,.<.<.1.2.2.3.4.",
"s T R < 1 2 % 5.6.7.7.8.9.9.0.q.",
": w.w e r 2 % I & e.r.r.r.r.{ t.",
"s y.u.) i.P $ p.a.s.d.d.d.d.c 0 ",
"f.G g.G h.j.h.k.G G g.g.g.g.l.b "
};
