/* XPM */
static const char *dbrmall_xpm[] = {
/* columns rows colors chars-per-pixel */
"16 16 165 2",
"c  c #CACACF",
"v. c #CACAD0",
"^  c #A84B4C",
"U  c #F7F7F7",
">  c #C0BFC5",
"o  c #878787",
"F  c #878788",
"u  c #B4B4B8",
"Y. c #D2D2D3",
"i  c #B4B4B9",
"z  c #C3C3C7",
"t  c #D2D2D6",
"w  c #C3C3C9",
"j  c #FAFBFD",
"$  c #FFFFFF",
"+. c #F0F0F3",
"6. c #E36565",
"l. c #E86969",
"F. c #808080",
"A  c #8F8F92",
"Z  c #9E9EA0",
">. c #858488",
"P. c #BCBCBC",
"7. c #F07777",
"L. c #9A3D3D",
"m  c #99979C",
"J  c #F8F8F9",
")  c #C1C0C7",
"Z. c #CF4646",
"o. c #D0CFD5",
"g  c #DFDEE2",
"i. c #EB6D6D",
"v  c #797978",
"0  c #797979",
"H. c #7E7D7E",
"S  c #88888B",
"1. c #A6A6A8",
"a. c #B73C3C",
"_  c #BC7879",
";. c #983A3A",
"n. c #F1F1F4",
"k  c #F1F1F5",
"#. c #BB5C5D",
"}  c #D24747",
"D. c #818181",
"c. c #913939",
"Q  c #B14E50",
"2. c #AEAEB1",
"I. c #8F3C3C",
"p. c #DF5959",
"l  c #DBDBDE",
"h. c #C2C1C7",
"k. c #D85B5B",
"u. c #F17575",
"h  c #EFEEF1",
"X  c #7A7A7A",
"D  c #89898C",
"B  c #B6B6B8",
"A. c #C94343",
"6  c #B6B6BC",
"&  c #F2F2F3",
":  c #7D7E7D",
"b  c #828283",
"C  c #AFAFB1",
"9. c #DB5656",
"x  c #BEBEC3",
"f  c #CDCDD2",
"r. c #FAFAFB",
"+  c #EBEBEE",
"3  c #FAFAFC",
"0. c #D14848",
"s. c #7B7B7A",
".  c #7B7B7B",
"8. c #ED6C6C",
"O  c #EEEFF0",
"!  c #D5D5D8",
"L  c #FDFEFE",
"H  c #FDFEFF",
"=  c #E4E4E6",
"{  c #A94B4C",
"d  c #CBCAD0",
"N. c #E16464",
"*. c #BE3F3F",
"/  c #A36668",
"1  c #E9E8EB",
"m. c #B7797A",
"`  c #D75656",
"9  c #BFBFC4",
"V. c #DDDDDF",
"I  c #FBFBFB",
"K  c #FBFBFC",
"@. c #FBFBFD",
"B. c #A74849",
"Y  c #7C7C7B",
"&. c #E96969",
"V  c #B8B8B9",
"n  c #908F93",
"W  c #B06C6D",
"w. c #D6D6D7",
"~  c #D6D6D8",
"y  c #B8B8BE",
"<  c #D6D6DA",
"@  c #F4F4F5",
"r  c #EAE9EC",
"q  c #C2C0C7",
"-. c #D04646",
"K. c #844949",
"3. c #B1B1B3",
"7  c #B1B1B6",
"a  c #C0C0C6",
"z. c #D85151",
" . c #844646",
"x. c #CE4646",
"e. c #FCFCFC",
"5. c #A34545",
"4  c #EDEDF0",
"#  c #FCFCFD",
".. c #7D7D7C",
"s  c #7D7D7D",
"<. c #9B9B9D",
"N  c #AFAEB0",
"[  c #D7D7DA",
"e  c #D7D7DB",
"E  c #F5F5F7",
"b. c #CDCCD3",
"$. c #D95B5B",
"C. c #9F4849",
"%. c #E67070",
"4. c #D0D0D1",
"8  c #B2B2B7",
"R  c #C1C1C7",
"=. c #D95252",
",  c #C1C1C8",
"-  c #EEEEF0",
"%  c #FDFDFE",
"q. c #9A3B3C",
"G. c #7E7E7E",
"g. c #A2494A",
"S. c #7E4343",
"(  c #BABABA",
":. c #888689",
"*  c #E7E7E9",
"T  c #BFBEC4",
"j. c #B6595A",
"X. c #CECDD2",
"2  c #F6F6F8",
"|  c #CD4444",
"y. c #C14242",
";  c #777776",
"   c #868686",
"U. c #814747",
"M  c #A4A4A6",
"p  c #B3B3B8",
"5  c #D1D1D5",
"d. c #AF5252",
"O. c #E0E0E3",
"f. c #D04848",
"t. c #FEFEFE",
"P  c #FEFEFF",
"M. c #D35555",
"'  c #E26464",
"G  c #7F7F7F",
",. c #8E8E91",
"]  c #AF4C4D",
"J. c #BBBBBA",
/* pixels */
"  . . . X X X X . . . . . . . o ",
". O + @ # $ $ % & * = = = = - ; ",
": > , < 1 2 3 4 5 6 7 8 8 7 9 0 ",
": q w e r 2 3 4 t y u i i p a 0 ",
"s d f g h j $ k l z x 9 9 x c v ",
"b n m M N B V C Z A S D D D D F ",
"G H J K L $ $ P # I U U U I P Y ",
"s T R < 1 2 3 E W Q ! 7 ~ ^ / ( ",
": ) w e r 2 # _ ` ' ] [ { } |  .",
"..X.o.O.+.@.$ #.$.%.&.*.=.| -.;.",
":.>.,.<.1.2.3.4.5.6.7.8.9.0.q.w.",
"G e.2 r.t.$ $ P e.y.u.i.p.a.% s.",
"s T R < 1 2 3 E d.6.7.8.9.f.g.( ",
": h.w e r 2 # j.k.%.l.a.z.| x.c.",
"s v.b.O.n.P $ m.M.N.B.V.C.Z.A.S.",
"D.G F.G G.H.G.J.K.L.P.F.P.I.U.Y."
};
