/* XPM */
static const char *index_xpm[] = {
/* columns rows colors chars-per-pixel */
"16 16 139 2",
"x  c #DEE3EB",
"8. c #DEE0E3",
"S  c #E8E8E7",
"g  c #E8E8E8",
"H  c #E8E8E9",
"9  c #F7F7F7",
"s  c #A0B0CC",
"]  c #AAB8D0",
"u  c #969696",
"E  c #C8D0DD",
"g. c #C3C3C2",
"+. c #D7DCE5",
"O  c #C3C3C3",
"p. c #DCE0E7",
"^  c #E1E1E1",
"5  c #FAFBFC",
"-  c #FFFFFF",
"*. c #9EADC9",
"$  c #717171",
"k  c #8F8F8F",
"(  c #DFE4EB",
"%. c #DFE1E4",
"t. c #DADADA",
"d. c #E9E9E9",
"q  c #F8F8F8",
"Z  c #A1B1CC",
"a  c #A1B1CD",
"T  c #ABB9D2",
"t  c #797979",
".  c #888888",
"B  c #979796",
"1  c #979797",
"@. c #D8DDE4",
"o  c #C4C4C4",
"o. c #DDE1E9",
".. c #D3D3D3",
"F  c #E2E2E2",
"b  c #E2E5EC",
"2  c #818181",
";. c #C2CAD8",
"+  c #9F9F9F",
"j  c #CCCCCC",
"f  c #E0E2E5",
"M  c #EAEAEA",
";  c #FEFDFD",
"d  c #A7B6CE",
"_  c #D9DEE7",
"w  c #C5C5C5",
"`  c #E3E6EB",
":. c #E3E3E2",
"c  c #DEE2EB",
"Q  c #E3E3E3",
"-. c #9BABC7",
"}  c #A5B3CC",
"q. c #C3CBD8",
"<. c #969595",
"#  c #AFAFAF",
"h. c #C3C2C2",
"u. c #E6E7E7",
"Y  c #E1E3E6",
"6. c #E1E3E7",
"h  c #DCDCDC",
"'  c #EBEBEB",
",  c #FAFAFA",
"&. c #A8B7CF",
"p  c #ADBBD4",
")  c #DADFE8",
"L  c #DFE3E9",
"~  c #D5D5D5",
"U  c #E4E4E4",
"W  c #E9E8E8",
"e  c #A1A1A1",
"7. c #979696",
"5. c #D8DCE3",
"4. c #D8DCE4",
"V  c #E2E4E7",
"r. c #DDDDDD",
"s. c #ECECEB",
"I  c #ECECEC",
"7  c #F6F7F8",
">  c #FBFBFB",
"r  c #8B8B8B",
"l. c #B8B8B8",
"i. c #E0E4EA",
"K  c #DBE0E9",
"|  c #DBDDE0",
"D  c #E5E5E5",
"1. c #E5E5E6",
"=. c #9DADC9",
"9. c #A7B5CD",
"@  c #757575",
"k. c #C0C0C0",
"z  c #E3E8EF",
"O. c #D9DDE6",
"i  c #E3E5E8",
" . c #DEDEDE",
"6  c #F7F8F9",
"4  c #EDEDED",
":  c #FCFCFC",
"y  c #7D7D7D",
"f. c #B9B9B9",
"G  c #D7D7D7",
"N  c #E6E6E6",
"X. c #E6E6E7",
"8  c #F5F5F7",
"{  c #9EAECA",
"R  c #9EAECB",
"A  c #A8B6CE",
"   c #949494",
"<  c #C1C1C1",
"y. c #D0D0D0",
">. c #DFDFDF",
"l  c #E9EAEB",
"w. c #E4E3E2",
"m  c #EEEEEE",
"P  c #EEEEEF",
"3  c #6F6F6F",
"X  c #BABABA",
"v  c #DDE2EA",
"J  c #E2E6ED",
"$. c #E7E7E7",
"/  c #E7E7E8",
"#. c #E7E7E9",
"0  c #F6F6F6",
"0. c #9AABC7",
"[  c #9FAFCA",
"%  c #777777",
"*  c #959595",
"j. c #C2C2C1",
"3. c #D6DBE4",
"2. c #DBDFE7",
",. c #D1D1D1",
"a. c #E5E7EA",
"e. c #E0E0DF",
"!  c #E0E0E0",
"=  c #EFEFEF",
"n  c #EFEFF0",
"C  c #ACBBD3",
"&  c #ACACAC",
/* pixels */
"  . X o O O O O O O o + @ # $ % ",
"& * = - - ; : > > , : < 1 2 - 3 ",
"& * 4 5 6 7 8 8 9 0 q w e r t y ",
"& u i p a a s d f g g h < j k + ",
"& * l z x c v b n = m 4 M N u & ",
"& B V C a Z A f S N D F G F u & ",
"& * H J v K L P = 4 I M N U * & ",
"& u Y T s R E W D Q Q ! ~ ^ u & ",
"& * / ( ) _ ` 4 I ' M g U F u & ",
"& u f ] [ { } | Q F ^  ...! u & ",
"& u X.o.O.+.@.#.M g $.N F ^ u & ",
"& u %.&.*.=.-.;.:.! >.h ,.>.u & ",
"& <.1.2.3.4.5.6.S N D Q >.! u & ",
"& 7.8.9.0.q.w.e.>.r.h t.y. .u & ",
"& u u.i.p.a.s.M d.g $.N F F u & ",
"  . f.g.h.j.< < < < k.< < l.. * "
};
