/* XPM */
static const char *table_xpm[] = {
/* columns rows colors chars-per-pixel */
"16 16 132 2",
".  c Black",
"w  c #823901",
"e. c #815516",
"K  c #BA7E2F",
"5  c #724610",
"h  c #A85C09",
"9. c #251002",
"#  c #4F2702",
":  c #FF9102",
"g  c #AB630C",
"&. c #43250B",
"!  c #8B571D",
";  c #C66B02",
"q. c #0D0903",
";. c #B37D3C",
"i. c #FFFFFF",
"4. c #2A0B00",
">  c #963A00",
"'  c #C0893E",
"p. c #211003",
"v  c #9F580A",
"H  c #B1772D",
"|  c #6B3C17",
"i  c #A26519",
"~  c #8E520C",
"7  c #8E4F04",
"a. c #4E310E",
"k  c #924000",
"2  c #985406",
"$. c #825322",
"r  c #3C1500",
"T  c #BE863C",
"e  c #FF7C03",
"7. c #130B02",
"/  c #6C4315",
"*. c #3D2208",
"o  c #090000",
"6. c #0C0A04",
"W  c #B2782A",
"x  c #7E5316",
"-  c #A55A02",
"Q  c #A36920",
"o. c #3B2206",
"t. c #160C03",
"n  c #B26F1B",
"m  c #B26F1C",
"%  c #402305",
"A  c #A35D0A",
"1. c #4A2B0C",
"l  c #783000",
"[  c #AB7432",
"O. c #341E07",
" . c #7B3D0F",
".. c #9C6221",
"p  c #A66719",
"&  c #6D410D",
"2. c #906023",
"X  c #0A0100",
"_  c #BD873D",
"D  c #9B782E",
"$  c #030000",
"@. c #AE7530",
"=  c #955506",
":. c #2F0E01",
"<  c #6A2800",
"w. c #010000",
"U  c #BB8134",
",. c #210F05",
"%. c #643D16",
"-. c #844C17",
"y  c #8E4E05",
">. c #70360B",
"j  c #9F4E03",
"u  c #9B6015",
"I  c #B97E31",
"C  c #B47420",
"G  c #8E4B11",
"9  c #934900",
"3  c #B4711A",
"N  c #B4711C",
"B  c #B4711D",
"{  c #8F5E26",
"X. c #5B360B",
"1  c #6E2D00",
"t  c #692900",
"R  c #BF893F",
"*  c #88510D",
"S  c #9C5E0B",
"u. c #0A0601",
"s. c #0F0A03",
"3. c #0A0602",
"8. c #52350A",
"0  c #914000",
"^  c #793F0C",
"E  c #BD863A",
"8  c #924D01",
")  c #BD863C",
"Y  c #BD8337",
"P  c #B87C2D",
"=. c #170C02",
"4  c #F69D29",
"+  c #230B00",
"6  c #89520E",
"q  c #853200",
",  c #592100",
"z  c #B67010",
"<. c #060000",
"b  c #B16F1B",
"d  c #AC6810",
"@  c #210B00",
"5. c #7F440C",
"r. c #1A0D03",
"y. c #332109",
"(  c #A5702D",
"`  c #BE873E",
"L  c #B97D2E",
"a  c #AA6B1C",
"V  c #B4731F",
"M  c #B4701A",
"Z  c #AF6C1A",
"F  c #894002",
"}  c #76491C",
"O  c #1F0800",
"]  c #B78039",
"+. c #8F5A1E",
"   c None",
"J  c #BC8132",
"0. c #60390C",
"#. c #9E692D",
"c  c #752D00",
"s  c #AD6C19",
"f  c #AD660E",
/* pixels */
"                                ",
"                                ",
"              . X o O + @       ",
"  . # $ % & * = - ; : > , < .   ",
"1 2 3 4 . 5 6 7 8 9 0 q . w e r ",
"t y u i p a s d f g h j k l z x ",
"c v b b n m M N B N V C Z A S D ",
"F G H J K L P I U Y T R E W Q ! ",
"~ ^ / ( ) _ ` ' ` ] [ { } |  ...",
"X.o.. O.+.@.#.$.%.&.*.=.. . -.;.",
". . . . :.>.,.<.. . . . . . 1.2.",
"3.. . . 4.5.6.. . . . . . . 7.8.",
". . . . 9.0.q.. . . . . . w.. e.",
". . . r.t.y.u.. . . . . . . . . ",
"  . . i.p.a.s.. . . . . . . .   ",
"    . . . . . . . .             "
};
