/* XPM */
static const char *tr_index_xpm[] = {
/* columns rows colors chars-per-pixel */
"48 48 430 2",
"6X c #70726F",
"VX c #DDDDDD",
"Uo c #DDDDDE",
"$X c #767773",
"MO c #737373",
"{. c #797B77",
"&. c #E6E6E5",
"RX c #E6E6E6",
"!. c #7F807C",
"lO c #7C7C7C",
"C. c #7F807D",
"B. c #828480",
"M. c #EFEFEF",
"bO c #858585",
"l. c #8B8D89",
"F. c #8E8E8E",
"f  c #949692",
"mo c #979797",
"j  c #9D9F9A",
"z  c #9D9F9B",
";o c #A0A09F",
"tO c #A0A0A0",
"|X c #A3A4A3",
"~  c #ACADA9",
"NX c #A9A9A8",
">O c #A9A9A9",
"&  c #ACADAA",
"kX c #ACADAB",
"*  c #AFB1AD",
"-O c #B2B2B2",
"G  c #B5B6B3",
".X c #B5B6B4",
"Bo c #484847",
"Ao c #484848",
"jo c #4B4C4B",
"&O c #BBBBBB",
"0  c #BEBFBC",
"!o c #515151",
"3o c #545553",
"#O c #C4C4C4",
"T  c #C7C8C5",
">o c #5A5A59",
"T. c #5A5A5A",
"U  c #CDCDCB",
"h. c #CDCDCC",
"]  c #D0D1CF",
"IX c #636362",
"8O c #636363",
"PX c #666764",
"MX c #666765",
"1. c #D6D6D5",
"io c #D6D6D6",
",. c #D9DAD8",
"eX c #6F706D",
"wX c #727471",
"1o c #DFDFDF",
"wO c #757575",
"~. c #7B7D79",
"bX c #E8E8E8",
"L. c #81827F",
"i. c #F1F1F1",
"c. c #F1F1F2",
"ao c #878787",
"m  c #8D8F8A",
"8. c #8D8F8B",
"vO c #909090",
"xo c #999998",
"uo c #999999",
"+  c #9FA19C",
"a  c #9FA19D",
"$o c #A2A2A1",
"'o c #A2A2A2",
"v  c #A5A6A3",
"3O c #383837",
"Q  c #A8AAA6",
"{o c #ABABAB",
"D  c #AEAFAC",
"Po c #414140",
"F  c #B1B3AF",
"Zo c #444544",
" O c #B4B4B4",
"U. c #B7B8B6",
"bo c #4A4A49",
"Ho c #4A4A4A",
"yo c #4D4E4D",
"oO c #BDBDBD",
">  c #C0C1BE",
"/o c #535353",
",o c #565755",
"P  c #C9CAC7",
"%o c #5C5C5B",
"7O c #5C5C5C",
"_X c #5F605E",
"3. c #D2D3D1",
"DX c #686967",
"8X c #D8D8D8",
"`  c #DBDCDA",
"5X c #71726F",
"   c None",
"O. c #E1E1E0",
"EX c #E1E1E1",
"@. c #E4E5E3",
"pO c #777777",
"[. c #7D7F7A",
"P. c #7D7F7B",
"yX c #EAEAEA",
"t. c #838480",
"w. c #F3F3F3",
"p. c #8C8D89",
"#o c #898989",
"c  c #8F918D",
"po c #929292",
"O  c #9E9F9B",
"ro c #9B9B9A",
"yO c #9B9B9B",
"!  c #A1A39F",
"hO c #313131",
"u  c #A7A8A4",
"'X c #A4A4A3",
"_o c #A4A4A4",
"A  c #A7A8A5",
"^o c #3A3A38",
"WX c #A7A8A7",
"S  c #AAACA8",
"~o c #3A3A3A",
"zO c #ADADAD",
"0X c #B0B1AF",
"So c #434343",
"/. c #B6B6B5",
"ho c #4C4C4B",
"fo c #4F504E",
"do c #4F504F",
"OO c #BFBFBF",
"K  c #C2C3C1",
"VO c #555555",
"=o c #585957",
"k  c #C8C8C6",
"6  c #CBCCCA",
" o c #5E5E5C",
".o c #5E5E5D",
"gO c #5E5E5E",
"!X c #616260",
"4. c #D1D1CF",
"2. c #D4D5D3",
"nX c #6A6B68",
"+o c #DADADA",
"X. c #DDDEDD",
";X c #737471",
"*X c #767874",
"+. c #E3E3E2",
"S. c #E3E3E3",
"$. c #E6E7E6",
"mO c #797979",
"M  c #7F817C",
"TX c #E9E8E9",
"V. c #7F817D",
"). c #ECECEC",
"(  c #888A85",
"k. c #888A86",
"AX c #8B8B8B",
"b  c #91938F",
"@o c #949494",
".  c #9A9C97",
"qo c #9D9D9C",
"5o c #9D9D9D",
"i  c #A3A5A1",
"(X c #A6A6A5",
")o c #A6A6A6",
"%  c #A9AAA7",
"SX c #A9AAA9",
"iX c #AFAFAE",
";O c #AFAFAF",
"5. c #B2B3B0",
"&X c #B2B3B1",
"Fo c #454544",
"R. c #454545",
"W. c #B8B8B7",
"*O c #B8B8B8",
"q  c #BBBCB9",
"to c #4E4E4D",
"Io c #4E4E4E",
"8o c #515251",
"R  c #C4C5C2",
"jO c #575757",
"oo c #5A5B59",
"q. c #CACAC9",
"5  c #CDCECC",
"(o c #606060",
"0O c #696969",
"lX c #6C6D6A",
"zX c #6C6D6B",
".. c #DCDCDB",
"Jo c #DCDCDC",
"o. c #DFE0DE",
"%X c #757673",
"#X c #787A76",
"*. c #E5E5E4",
"]X c #E5E5E5",
"eO c #7B7B7B",
"9. c #81837E",
"n. c #81837F",
"A. c #EEEEEE",
"x. c #878884",
"X  c #90948D",
"a. c #90918D",
"2X c #8D8D8D",
"CX c #969696",
"/  c #9C9E9A",
"`o c #9F9F9F",
"#  c #A2A3A0",
"$  c #A5A7A3",
"}X c #A2A3A2",
"HX c #A8A8A7",
"[o c #A8A8A8",
"jX c #ABACAA",
":X c #B1B1B0",
"|o c #B1B1B1",
"@X c #B4B5B3",
"No c #474746",
"E. c #474747",
"m. c #BABAB8",
"vo c #4A4B4A",
"XO c #BABABA",
":  c #BDBEBB",
"eo c #50504F",
"ZO c #505050",
"wo c #535453",
"@O c #C3C3C3",
"L  c #C6C7C4",
"*o c #595958",
"9X c #595959",
"{X c #5C5D5B",
"4  c #CFD0CE",
"1O c #626262",
"FX c #656663",
"cX c #686A67",
"JX c #D5D5D5",
"|  c #D8D9D7",
"sO c #6B6B6B",
"rX c #6E6F6D",
"4X c #717370",
"Co c #DEDEDE",
"-. c #E1E2E1",
"=X c #777874",
"OX c #777875",
"oX c #777876",
"XX c #7A7C78",
"%. c #E7E7E6",
"BX c #E7E7E7",
"iO c #7D7D7D",
"g. c #F0F0F0",
"v. c #898A86",
"Qo c #868686",
"s. c #898A87",
"G. c #8F8F8F",
"n  c #959792",
"ko c #989897",
"<X c #989898",
"Ko c #9B9C9B",
"s  c #9EA09C",
"5O c #2E2E2F",
"Z  c #A4A5A1",
"Oo c #A1A1A0",
"<O c #A1A1A1",
"^  c #A7A9A5",
"Eo c #373737",
"xO c #AAAAAA",
"B  c #ADAEAB",
"dX c #ADAEAC",
"Ro c #404041",
"Go c #434443",
"'. c #B6B7B5",
"CO c #494949",
"W  c #B9BBB8",
"go c #4C4D4C",
"J  c #BFC0BD",
"9o c #525251",
"Yo c #525252",
"l  c #C5C5C3",
"7  c #C8C9C6",
"Xo c #5B5B5A",
"SO c #5B5B5B",
"`X c #5E5F5D",
"I  c #CECECC",
"lo c #CECECE",
"mX c #676865",
"}  c #D7D7D6",
"hX c #6A6C69",
" . c #DADBD9",
"NO c #6D6D6D",
"pX c #70716E",
"aX c #70716F",
";. c #E0E0DF",
",X c #E0E0E0",
"=. c #E3E4E2",
"|. c #797A76",
"}. c #797A77",
"]. c #7C7E7A",
"uX c #E9E9E9",
"7. c #858A81",
"nO c #7F7F7F",
"b. c #858782",
"f. c #F2F2F2",
"so c #888888",
"h  c #8E908B",
"D. c #9A9A9A",
"p  c #A0A29E",
",O c #A3A3A3",
"6. c #A6A7A4",
"YX c #A6A7A6",
":O c #ACACAC",
"7X c #AFB0AE",
"4O c #424241",
"Do c #424242",
" X c #B5B5B3",
"=O c #B5B5B5",
"w  c #B8B9B6",
"Z. c #B8B9B7",
"%O c #BEBEBE",
"E  c #C1C2BF",
"9  c #C1C2C0",
"4o c #545453",
"kO c #545454",
"<  c #C7C7C5",
"1  c #CACBC8",
"Y  c #CACBC9",
"[X c #5D5D5B",
"&o c #5D5D5C",
"9O c #5D5D5D",
"^X c #60615F",
"'  c #D3D4D2",
"dO c #666666",
"xX c #696A67",
"fX c #6F6F6D",
"_  c #DCDDDC",
"qO c #6F6F6F",
"qX c #727370",
"`. c #E2E2E2",
"#. c #E5E6E5",
"^. c #7B7C78",
"Q. c #7E807C",
">X c #EBEBEB",
"z. c #848581",
"rO c #818181",
"ZX c #8A8A8A",
"g  c #90928E",
"o  c #999B96",
"d  c #999B97",
"no c #969796",
"@  c #9FA09C",
"0o c #9C9C9B",
"cO c #9C9C9C",
"0. c #9FA09D",
"2o c #9FA09F",
"/X c #A5A5A4",
"]o c #A5A5A5",
"N  c #A8A9A6",
"LX c #A8A9A8",
"tX c #AEAEAD",
"}o c #AEAEAE",
"r  c #B1B2AF",
"3X c #B1B2B0",
"To c #444443",
"e  c #B4B6B2",
"Lo c #444444",
"Mo c #474847",
".O c #B7B7B7",
";  c #BABBB8",
"N. c #BABBB9",
"co c #4D4D4D",
"$O c #C0C0C0",
",  c #C3C4C2",
"6o c #565655",
"AO c #565656",
"2O c #565657",
"2  c #CCCDCB",
"fO c #5F5F5F",
")X c #626360",
"UX c #626361",
"[  c #D2D2D0",
"u. c #D2D2D1",
":o c #D2D2D2",
"{  c #D5D6D4",
"BO c #686868",
"gX c #6B6C69",
">. c #DBDBDA",
"Y. c #DBDBDB",
":. c #DEDFDD",
"aO c #717171",
"-X c #747572",
"_. c #E4E4E4",
"I. c #7D7E7B",
"J. c #80827E",
"K. c #80827F",
"(. c #EDEDED",
"Wo c #838382",
"uO c #838383",
"d. c #868784",
"y. c #898B87",
"e. c #F6F6F6",
"r. c #F6F6F7",
"1X c #8C8C8C",
")  c #989995",
"Vo c #959595",
"j. c #989996",
"x  c #9B9D99",
"C  c #A1A29E",
"<o c #9E9E9E",
"V  c #AAABA7",
"y  c #AAABA8",
"vX c #AAABA9",
"t  c #ADAFAB",
"=  c #B3B4B1",
"+X c #B3B4B2",
"-  c #B6B8B4",
"KX c #464646",
"H. c #B9B9B8",
"H  c #BCBDBA",
"6O c #4F4F4F",
"7o c #525351",
"+O c #C2C2C2",
"8  c #C5C6C3",
"-o c #585857",
"zo c #585858",
"~X c #61615F",
"3  c #CECFCD",
"QX c #646562",
"GX c #646563",
"<. c #D7D8D6",
"sX c #6D6E6B",
/* pixels */
"                                                                                                ",
"      . X o O + @ # $ % & * = - ; : > , < 1 2 3 4 5 6 7 8 9 0 q w e r t y u i p a s d X .       ",
"    f g $ h . j O # $ % & * = - ; : > , < 1 2 3 4 5 6 k l 9 0 q w e r t y u i a z x c v b n     ",
"  m c M x N B V C p Z A S D F G w H J K L P 2 I 3 U Y T R E : W - = * & Q v ! ! Q ~ ^ / M g h   ",
"  ( Z ) r 4 _ ` ' ] [ ' { } |  ...X.o.O.+.@.#.$.%.&.*.=.-.;.:._ >.,.<.1.2.3.4.'  .>.I 5.d 6.7.  ",
"  8.9.0.q.w.e.e.e.r.e.e.e.e.e.e.e.e.e.e.e.e.e.e.e.e.e.e.e.e.e.e.e.e.e.e.e.e.r.e.e.e.w.2 ! t.c   ",
"  8.y.s u.w.i.i.i.i.i.i.i.i.i.i.i.i.i.i.i.i.i.i.i.i.i.i.i.i.i.i.i.i.i.i.i.i.i.i.i.i.w.2.# p.a.  ",
"  s.d.f Y f.g.g.g.g.g.g.g.g.g.g.g.g.g.g.g.g.g.g.g.g.g.g.g.g.g.g.g.g.g.g.g.g.g.g.g.g.i.h.j.k.l.  ",
"  z.t.x.> c.g.g.g.g.g.g.g.g.g.g.g.g.g.g.g.g.g.g.g.g.g.g.g.g.g.g.g.g.g.g.g.g.g.g.g.g.i.9 v.z.b.  ",
"  n.n.9.m.i.M.M.M.M.M.M.f.f.f.f.f.f.f.f.f.f.f.f.f.f.f.f.f.f.f.f.f.f.f.f.M.M.M.M.M.M.i.N.B.B.B.  ",
"  V.V.C.Z.g.A.A.A.A.M.S.D.F.G.G.G.G.G.G.G.G.G.G.G.G.G.G.G.G.G.G.G.G.F.D.S.M.A.A.A.A.g.H.J.K.L.  ",
"  P.I.I.U.g.A.A.A.A.M.Y.T.R.E.E.E.E.E.E.E.E.E.E.E.E.E.E.E.E.E.E.E.E.R.T.Y.M.A.A.A.A.g.W.Q.!.C.  ",
"  ~.^.~./.M.(.(.(.(.(.)._.`.S.S.S.S.S.S.S.S.S.S.S.S.S.S.S.S.S.S.S.S.`._.).(.(.(.(.(.M.'.].[.P.  ",
"  {.}.|. XM.(.(.(.(.(.(.M.M.M.M.M.M.M.M.M.M.M.M.M.M.M.M.M.M.M.M.M.M.M.M.(.(.(.(.(.(.M..XXX^.~.  ",
"  oXOXOX+XA.).).).).).).).).).).).).).).).).).).).).).).).).).).).).).).).).).).).).A.@X#X#X}.  ",
"  $X%X%X&XA.).).).).).).A.M.M.M.M.M.M.M.M.M.M.M.M.M.M.M.M.M.M.M.M.M.M.A.).).).).).).A.+X*X*X=X  ",
"  -X;X;X:X(.>X>X>X>X).,X<X1X2X2X2X2X2X2X2X2X2X2X2X2X2X2X2X2X2X2X2X2X1X<X,X).>X>X>X>X(.3X-X-X%X  ",
"  4X5X6X7X(.>X>X>X>X).8X9XR.E.E.E.E.E.E.E.E.E.E.E.E.E.E.E.E.E.E.E.E.R.9X8X).>X>X>X>X(.0XqXqXwX  ",
"  eXeXrXtX).yXyXyXyXyXuXS.`.`.`.`.`.`.`.`.`.`.`.`.`.`.`.`.`.`.`.`.`.`.S.uXyXyXyXyXyX).iXpXpXaX  ",
"  sXsXsXdX).yXyXyXyXyXyX).).).).).).).).).).).).).).).).).).).).).).).).yXyXyXyXyXyX).tXrXrXfX  ",
"  gXgXhXjX>XuXuXuXuXuXuXuXuXuXuXuXuXuXuXuXuXuXuXuXuXuXuXuXuXuXuXuXuXuXuXuXuXuXuXuXuX>XkXlXzXsX  ",
"  xXcXcXvXyXbXbXbXbXbXbX>X>X>X>X>X>X>X>X>X>X>X>X>X>X>X>X>X>X>X>X>X>X>X>XbXbXbXbXbXbXyXjXnXhXgX  ",
"  mXMXMXNXuXBXBXBXBXbXVXCXZXAXAXAXAXAXAXAXAXAXAXAXAXAXAXAXAXAXAXAXAXZXCXVXbXBXBXBXBXuXSXDXDXxX  ",
"  FXGXGXHXuXBXBXBXBXbXJX9XKXE.E.E.E.E.E.E.E.E.E.E.E.E.E.E.E.E.E.E.E.KX9XJXbXBXBXBXBXuXLXPXPXmX  ",
"  IXUXUXYXTXRXRXRXRXRXRXEXEXEXEXEXEXEXEXEXEXEXEXEXEXEXEXEXEXEXEXEXEXEXEXRXRXRXRXRXRXbXWXGXQXGX  ",
"  !X~X^X/XbXRXRXRXRXRXRXbXbXbXbXbXbXbXbXbXbXbXbXbXbXbXbXbXbXbXbXbXbXbXbXRXRXRXRXRXRXbX(X)X)XUX  ",
"  _X`X`X'XBX]X]X]X]X]X]X]X]X]X]X]X]X]X]X]X]X]X]X]X]X]X]X]X]X]X]X]X]X]X]X]X]X]X]X]X]XBX/X^X_X^X  ",
"  [X{X{X}XBX]X]X]X]X]X]XbXbXbXbXbXbXbXbXbXbXbXbXbXbXbXbXbXbXbXbXbXbXbXbX]X]X]X]X]X]XBX|X o.o`X  ",
"  XoooooOoRX_._._._.]X+o@o#oZXZXZXZXZXZXZXZXZXZXZXZXZXZXZXZXZXZXZXZX#o@o+o]X_._._._.RX$o%o{X&o  ",
"  *o=o-o;oRX_._._._.]X:o9XKXE.E.E.E.E.E.E.E.E.E.E.E.E.E.E.E.E.E.E.E.KX9X:o]X_._._._.RXOo>oooXo  ",
"  ,o,o,o<o]X`.`.`.`.`.`.,X1o1o1o1o1o1o1o1o1o1o1o1o1o1o1o1o1o1o1o1o1o1o,X`.`.`.`.`.`.]X2o=o=o=o  ",
"  3o4o4o5o_.`.`.`.`.`.`._._._._._._._._._._._._._._._._._._._._._._._._.`.`.`.`.`.`._.<o6o6o,o  ",
"  7o8o9o0o_.EXEXEXEXEXEXEXEXEXEXEXEXEXEXEXEXEXEXEXEXEXEXEXEXEXEXEXEXEXEXEXEXEXEXEXEX_.qo4owo3o  ",
"  eoeoeoroS.EXEXEXEXEXEXS._._._._._._._._._._._._._._._._._._._._._._.S.EXEXEXEXEXEXS.0o9o9o9o  ",
"  toyoyouoS.,X,X,X,XEXiopoaososososososososososososososososososososoaopoioEX,X,X,X,XS.D.dofoeo  ",
"  gohojoko`.,X,X,X,XEXlozoKXE.E.E.E.E.E.E.E.E.E.E.E.E.E.E.E.E.E.E.E.KXzoloEX,X,X,X,X`.xococoto  ",
"  vobobonoEX1o1o1o1o1o1o1o1o1o1o1o1o1o1o1o1o1o1o1o1o1o1o1o1o1o1o1o1o1o1o1o1o1o1o1o1oEXmojohogo  ",
"  MoNoBoVoEX1o1o1o1oCo1o,XEXEXEXEXEXEXEXEXEXEXEXEXEXEXEXEXEXEXEXEXEXEX,X1oCo1o1o1o1oEXCXbobovo  ",
"  R.ZoR.@o,XCoCoCoCoCoCoCoCoCoCoCoCoCoCoCoCoCoCoCoCoCoCoCoCoCoCoCoCoCoCoCoCoCoCoCoCo,XVoMoMoAo  ",
"  SoDoFoVo,XVXVXVXVXVXVXVXVXVXVXVXVXVXVXVXVXVXVXVXVXVXVXVXVXVXVXVXVXVXVXVXVXVXVXVXVX,XCXMoR.KX  ",
"  GoDoHouo1oJoJoJoJoJoJoJoJoJoJoJoJoJoJoJoJoJoJoJoJoJoJoJoJoJoJoJoJoJoJoJoJoJoJoJoJo1oKocoLoKX  ",
"  SoPoIoKoCoY.Y.Y.Y.Y.Y.Y.Y.Y.Y.Y.Y.Y.Y.Y.Y.Y.Y.Y.Y.Y.Y.Y.Y.Y.Y.Y.Y.Y.Y.Y.Y.Y.Y.Y.Y.Uo<oYoToNo  ",
"  RoEocoWo:oVXVXVXVXVXVXVXVXJoJoJoJoJoJoJoJoJoJoJoJoJoJoJoJoJoJoJoJoVXVXVXVXVXVXVXVX:oQo!o~oLo  ",
"  ^o/oAo(o1X)o_o`o5o`o'o]o[o{o}o|o O.OXOoOOO+O@O#O+O$O%O&O*O=O-O;O:O>O)o,O<O<o`o_o]o1X1Oho2O3O  ",
"  4ODo5O6O7O8O1O7O9O8O0OqOwOeOrOQo2Xpo<X<o,O[o{o:O>O]otOyO@oG.#ouOiOpOaOsOdOfOgO1O8O7O!ohOLoDo  ",
"    KXDojOE.kOjOT.(odOsOaOpOlOuOsoF.@oD.`o_o>O:OzOxO)o<OcOCXvOZXbOnOmOMONOBO1O7OT.VOCO9XLoAo    ",
"      YoAoZOAO9XSO(odOsOaOpOlOuOsoF.@oD.`o_o>O:OzOxO)o<OcOCXvOZXbOnOmOMONOBO1O9OSOzo!oHoYo      ",
"                                                                                                "
};
