/* XPM */
static const char *tr_table_xpm[] = {
/* columns rows colors chars-per-pixel */
"48 48 701 2",
".  c Black",
"$# c #000001",
"4# c #FFFF52",
"fo c #AB6713",
"). c #250300",
"s+ c #FFFF54",
"gX c #AB6716",
"sX c #B16E19",
"}X c #B16E1A",
"N  c #993A00",
"|. c #B16E1C",
"!@ c #A56624",
"I+ c #0C0200",
"'X c #B77520",
"=X c #B77521",
"1. c #B77522",
"n# c #553508",
"f  c #FFFF65",
"S+ c #B17A34",
"<@ c #A57E4A",
"|@ c #4F2200",
"kO c #B7813B",
"=. c #925A16",
"^O c #BD8841",
"9  c #551D00",
"So c #B67817",
"k  c #733A01",
"M  c #9E4400",
"Z. c #B6721B",
"cX c #B6721D",
"tX c #6D2700",
"Q+ c #FFFF90",
"EO c #B67E36",
"gO c #B67E37",
"L  c #F99825",
"h. c #481800",
"iO c #B67E38",
"/@ c #FFFF99",
"3O c #8B3E00",
"cO c #BC853B",
"qo c #7F3001",
"{o c #BC853C",
"@@ c #8B5018",
"`O c #C28C3F",
"b@ c #FFFF9D",
"@O c #C28C40",
"1@ c #FFFF9E",
"@+ c #97520D",
"0@ c #975E1D",
"o@ c #C89345",
"7X c #A35405",
"[@ c #230300",
"D  c #040100",
"&. c #72430F",
"q+ c #662F0A",
"#  c #0A0200",
"To c #A97330",
"RX c #161006",
"l# c #965B0E",
":O c #C18936",
"e@ c #C1893A",
"6O c #5F3103",
"^  c #AE6506",
"7o c #715222",
"}. c #AE6B18",
"x@ c #A26321",
"BO c #4C2B00",
"3  c #462401",
"po c #B4721E",
"t@ c #A8702F",
"WX c #461E02",
"NO c #461E04",
"rX c #5F1300",
"k@ c #1B140A",
"a. c #582D00",
"M@ c #211507",
"!+ c #271601",
"9o c #954C01",
"E+ c #C6872F",
"o. c #210900",
"Fo c #A76D1A",
"y. c #A14E00",
"p@ c #5E2804",
"h# c #020100",
"S. c #AD6814",
"v. c #AD6E1D",
"W@ c #080200",
"K. c #B36F18",
"Z  c #DE6700",
"l  c #7C3F02",
"OX c #B36F1B",
"ao c #B9761F",
"-X c #B97620",
"8@ c #512901",
"lo c #B97C2D",
"v+ c #B37B35",
"<O c #512F10",
"3+ c #B9823B",
"n+ c #BF893D",
"hO c #BF893E",
" O c #BF893F",
"d@ c #260D00",
"Z+ c #C59044",
"V+ c #C59045",
"y@ c #945B21",
"O  c #320F00",
"DO c #7B4208",
"K+ c #3E1700",
"p+ c #C4811E",
"2O c #9F6002",
"yo c #B87928",
"&  c #3E1100",
"AO c #754721",
"eo c #B87F33",
"~o c #B87F34",
"WO c #BE863B",
"#O c #C48D3F",
"HO c #C48D40",
"+. c #873200",
"'. c #A55501",
"d. c #3D2000",
")X c #AB6816",
"$X c #AB6817",
"t# c #BD710A",
"fX c #AB6818",
"N. c #B16F1C",
"l@ c #0C0300",
"#@ c #7A3F0C",
"=+ c #B17B35",
"u@ c #804615",
"IX c #985000",
"-# c #FFD039",
"(O c #BD8941",
"/O c #BD8942",
"&# c #61380D",
"5X c #A45805",
"T. c #AA5F06",
" + c #551801",
"(. c #3C1D00",
"L. c #B06C16",
"wX c #0B0600",
"]X c #B6731D",
"8O c #AA712C",
"W+ c #A47C42",
"lX c #B6731F",
")@ c #611A01",
"=o c #B6792B",
"Bo c #B67F36",
"VO c #A36709",
"XO c #B67F37",
"fO c #B67F38",
"7+ c #B67F39",
"Go c #916421",
"+O c #BC863D",
"y+ c #1D0300",
"Ro c #C28D41",
"0o c #7F2B00",
"aO c #C28D42",
"no c #C28D43",
"`  c #A95C05",
"x# c #040200",
":@ c #662A00",
"y# c #6C491D",
"n@ c #0A0906",
"j@ c #78511B",
"a  c #472806",
"j# c #100400",
"ko c #BB7D2B",
"V  c #7E3400",
"2# c #9C691A",
"2o c #A86505",
";o c #BB8339",
"IO c #BB833A",
"P@ c #1C0600",
"c# c #220D01",
"0X c #4D1700",
"LX c #A85F06",
"<  c #220700",
"r@ c #C79142",
"p# c #904308",
"4O c #8A3C0B",
"u. c #9C4500",
"@X c #A86515",
"6X c #A25208",
"}@ c #090000",
"go c #B4731F",
"ho c #BA7A25",
"w@ c #BA8031",
"h+ c #89450B",
"Qo c #C08739",
"|  c #833200",
"8X c #A15500",
"|O c #582205",
"ZX c #AD6915",
"2X c #B37018",
"D+ c #A16728",
"1O c #4B2900",
">X c #B3701B",
" X c #B3701C",
")+ c #140B02",
"4@ c #4B2F0D",
";@ c #140500",
"J  c #573107",
"a@ c #4B1D00",
",+ c #B37C37",
"c  c #9A5101",
"TO c #BF8A40",
"mo c #BF8A41",
"YX c #200700",
"~  c #AC6607",
"yX c #A05201",
"i# c #4B1100",
"[  c #A04C00",
"Q. c #822900",
"5# c #450400",
"`@ c #571903",
"&X c #B26D18",
"XX c #B8741C",
"5O c #694021",
"f@ c #190900",
"!X c #6F2300",
"m@ c #1F160B",
"KO c #B88038",
" @ c #B88039",
"UO c #BE873C",
"eO c #C48E40",
"2+ c #C48E41",
"_O c #C48E42",
"[. c #AB630A",
" . c #6E3200",
"Y  c #74450F",
"u+ c #561000",
"eX c #310700",
"$+ c #6E441F",
"xX c #B77723",
"-O c #B77D2C",
"@. c #FFAD02",
"b# c #8C5B17",
"/o c #B77D30",
"z. c #92560A",
"^o c #B77D32",
"D. c #AA6613",
"L@ c #2A0900",
",  c #050000",
"CX c #B06D18",
"T@ c #0B0703",
"l. c #7F4403",
"FX c #B6741C",
"G  c #110800",
"%+ c #482604",
"V. c #B6741F",
"h  c #542E02",
"^. c #732A00",
"OO c #B68038",
"QX c #8B4001",
"d  c #C8771A",
"jO c #BC873F",
"2@ c #291805",
":# c #7F2C00",
"bo c #C28E43",
",O c #976629",
"UX c #784000",
"B@ c #040301",
"I. c #AF6A11",
"t+ c #290600",
"B  c #913500",
"DX c #B5711A",
".X c #B5711B",
"C  c #350E00",
"C@ c #3B1500",
"Zo c #BB7E23",
"bX c #B5711D",
"9@ c #7E410A",
"oO c #B57D36",
"}+ c #BB843A",
"o+ c #845A2B",
"$O c #C18B3E",
"6+ c #C18B3F",
"vo c #C18B40",
"w+ c #531F03",
"j. c #592000",
"'  c #A85A03",
"8. c #AE670B",
"C+ c #C79246",
" # c #965D20",
"p  c #3A1E02",
"   c None",
"J@ c #5F2708",
"bO c #9C6427",
"R@ c #090704",
"(@ c #341100",
",. c #B47420",
"Xo c #BA751A",
"a+ c #A87E3F",
"^@ c #A27D4F",
"*O c #BA8135",
",o c #C08837",
"0O c #BA8138",
"]o c #BA8139",
"]. c #A75D04",
"SX c #AD6A17",
"H+ c #6A3208",
"`X c #B3711C",
"n. c #B3711D",
",# c #704B22",
"G+ c #7C410F",
"Y+ c #140604",
"{@ c #140000",
"-o c #B97E33",
"_o c #BF8534",
"4+ c #B9843E",
"4o c #A05904",
"P  c #260F00",
"B+ c #BF8B42",
"r# c #883702",
"A  c #260900",
"Do c #B27415",
"1  c #010000",
"{. c #AC6711",
"q# c #3E2B10",
"F@ c #A06526",
"3. c #B26E19",
"*@ c #753D09",
":X c #B26E1A",
"h@ c #442C0E",
"FO c #AC732B",
"zX c #B8751F",
";X c #B87520",
"*. c #875213",
"No c #B88139",
"A+ c #BE883D",
"j+ c #563516",
"3X c #AB6408",
"w. c #A55D09",
"'@ c #4A1506",
"X@ c #C48F44",
"q. c #A55D0A",
"9. c #AB640A",
"s  c #6E3F0B",
"f# c #B1711B",
"MO c #68320B",
"!. c #621F00",
"HX c #B77823",
" o c #B7721C",
"Vo c #B77E31",
";  c #120000",
">O c #BD8537",
"&O c #BD8539",
"co c #BD853A",
"*+ c #8C561C",
"0  c #612800",
"G. c #AA6714",
"{  c #984000",
"-@ c #050100",
"># c #BC6A04",
"8# c #6D481F",
"<. c #B67521",
"]O c #AA7330",
"=O c #B67B2D",
"_. c #6D2400",
"v@ c #A47E4E",
"g@ c #1D0B01",
"k+ c #231202",
"6@ c #291902",
"J+ c #542302",
"&@ c #5A2A03",
"#. c #291300",
"X# c #7F5D3A",
"/  c #AF6504",
"r. c #A95E05",
"L+ c #290D00",
"n  c #A35100",
">@ c #9D5C1B",
"#o c #AF6B16",
"m. c #AF6B18",
"o# c #FFC66C",
"M. c #AF6B19",
".+ c #6C2D02",
"aX c #B5721B",
"so c #B5721C",
"T  c #7E4E12",
"*X c #B5721D",
"2. c #B5721E",
"5  c #8A4A03",
"9X c #843D00",
"Uo c #7E4817",
"to c #BB7F30",
"U  c #593309",
"g. c #1C0800",
"Mo c #BB853D",
"w# c #281C0C",
"sO c #C18C40",
"7  c #1C0200",
"%# c #220900",
"YO c #C18C42",
"0. c #A86109",
"S  c #A93400",
"U+ c #FF4E04",
"u  c #030100",
"Io c #84310A",
"k# c #3A1F05",
"Ao c #BA7C1D",
"~@ c #CD944C",
"mX c #BA761F",
"z  c #894701",
"0# c #1B1105",
"N@ c #1B1106",
"w  c #7D3300",
"K  c #8F5410",
"9O c #BA8239",
"pO c #BA823A",
"<# c #210C01",
">o c #C0893C",
"4X c #A75E04",
"F+ c #8F541B",
"GO c #C69042",
"e# c #460900",
"^+ c #70400A",
"N# c #392810",
"k. c #703400",
"dX c #AD6B1A",
"]@ c #330900",
":  c #0E0000",
"R  c #8E5713",
"ro c #BF8637",
"K@ c #4B1902",
"E  c #9A5F16",
"!  c #AC680B",
")  c #AC6205",
"E@ c #010101",
"AX c #AC6814",
"}  c #8E3300",
"+# c #5D1C00",
"oo c #B26F19",
"~+ c #4A2E07",
"|X c #B26F1B",
"[X c #B26F1C",
"I@ c #0D0300",
"NX c #B8761F",
"2  c #190B00",
"zo c #B87C30",
"lO c #B8823A",
"x. c #9F6314",
"4  c #683903",
"6# c #812E00",
"5. c #B16C11",
"4. c #B16C13",
"5@ c #804F0E",
"T+ c #622000",
"pX c #B77319",
"<X c #B7731B",
"1X c #B7731C",
"oX c #B7731D",
"1# c #492B0A",
"Ko c #492503",
"nX c #B7731E",
"PO c #B77F38",
"uO c #B77F39",
"X+ c #98590D",
":o c #BD863B",
"e  c #863800",
"JO c #BD863C",
"_+ c #5B2E05",
".# c #B77F3D",
"[+ c #C38D3E",
"Eo c #C38D40",
"xO c #C38D41",
"|o c #C38D42",
"l+ c #673606",
"9+ c #92581F",
"i+ c #8C3F0A",
";. c #A46719",
"Q  c #AA6812",
",@ c #C98E3F",
"6  c #FF9702",
"U. c #B0690E",
"*# c #AA6E1E",
"+  c #050200",
"9# c #050201",
"}O c #67300C",
"kX c #B06F1D",
"GX c #B6761F",
"s. c #FF8B00",
"D@ c #B0752A",
"*o c #B67624",
"jo c #BC7D29",
";O c #BC8331",
"*  c #732600",
"!o c #BC8336",
"j  c #603202",
"7O c #915515",
"Ho c #604A22",
"`. c #9D4B00",
"z@ c #662D00",
"R. c #A95903",
"F. c #A96513",
"s# c #6C4C1F",
"+@ c #9D6325",
"Oo c #AF6C17",
"_X c #AF6C19",
"BX c #B5731D",
"<o c #BB8028",
"$. c #4D2C07",
"vO c #AF7832",
"X  c #100100",
"&+ c #844A0E",
"`+ c #844A10",
"d# c #84440C",
"p. c #7E3100",
"`o c #C18736",
"N+ c #BB863E",
"%. c #653C0C",
"6o c #775110",
"Y@ c #030200",
"R+ c #964D13",
"JX c #B4761B",
"i. c #903400",
"%X c #AE6916",
"$o c #B47019",
"=# c #774B17",
"EX c #4C3510",
"MX c #BA7720",
"Z@ c #712C03",
"Yo c #894E13",
"b+ c #BA8339",
".O c #BA833A",
"'O c #BA833B",
"g# c #583D1A",
"wO c #C08A3E",
"f+ c #A16A18",
"yO c #C08A3F",
"~O c #C08A40",
"Po c #832F00",
"W  c #A16415",
"v  c #A15200",
"5+ c #C69144",
"Y. c #AD660B",
"[O c #955C23",
"E. c #A75300",
"/. c #0E0D00",
"jX c #AD6C1A",
"7# c #B96806",
"c@ c #CC9249",
"'+ c #AD782F",
".o c #B9741B",
"r+ c #330A00",
"8o c #451F03",
"m# c #140801",
"H@ c #763C11",
"5o c #9A600A",
"e+ c #3F1200",
"0+ c #7C4313",
"x+ c #B37F39",
"xo c #B98035",
"3@ c #261706",
"-. c #9A6017",
"y  c #511B00",
"#+ c #8E460B",
"O. c #571C00",
"/X c #AC6913",
"(+ c #382007",
"+o c #AC6915",
"## c #634220",
"$@ c #693105",
"@o c #AC6916",
"7@ c #070300",
"VX c #B2701B",
"B. c #B2701D",
"~. c #252000",
"io c #B2701F",
"8+ c #A66E2E",
"/+ c #874808",
"@# c #935005",
"P+ c #190600",
"H  c #251401",
"~X c #873C02",
"wo c #8D4F12",
"nO c #874E1A",
")O c #BE8A42",
"ZO c #8D430A",
"t. c #A55903",
"g+ c #995713",
";# c #440401",
"z+ c #9F6421",
"W. c #9F4600",
":. c #AB6C1C",
"d+ c #492C02",
"J. c #B16D18",
"a# c #C37C15",
"i@ c #6E350B",
"C. c #B7741E",
"c+ c #B78038",
"<+ c #B78039",
"M+ c #B7803A",
"qO c #BD873C",
":+ c #BD873F",
"m+ c #C38E41",
"tO c #C38E42",
"}o c #C38E43",
"G@ c #8C521D",
"_  c #AA5D05",
"7. c #B06A0D",
"V@ c #050300",
"u# c #050301",
"_@ c #5B1D04",
"b. c #B0701E",
"vX c #B6711B",
"Jo c #FFC242",
"X. c #110500",
"i  c #1D0D00",
"RO c #B67D35",
"LO c #B67D36",
"Wo c #C28B3C",
"1+ c #C28B3E",
"-+ c #C28B3F",
">  c #A43200",
"KX c #AF6D0C",
"b  c #A35300",
"e. c #A96009",
"m  c #A34D00",
"(X c #A96615",
"U@ c #040000",
"#X c #A96617",
"iX c #B56E11",
"do c #AF6D19",
"qX c #411F00",
"{X c #AF6D1C",
"O+ c #4D2D01",
"q  c #723000",
"f. c #F27B00",
"z# c #4D2D07",
"uo c #B57422",
"q@ c #B57A2A",
")o c #BB8133",
"x  c #964E02",
"%@ c #532201",
"(  c #AE6404",
"O# c #410701",
"A@ c #9C6119",
"uX c #AE6408",
"g  c #3A1B00",
"P. c #AE6A14",
"I  c #402204",
".. c #713300",
"s@ c #3A1500",
",X c #B4711B",
"$  c #0F0500",
"8  c #3A0F00",
"O@ c #AE7632",
"B# c #1B1309",
">+ c #B47D37",
"M# c #211406",
"3o c #A15902",
"dO c #BA843D",
";+ c #C08B41",
"PX c #A15302",
"Q@ c #642E00",
"1o c #B37414",
"@  c #020000",
"-  c #FFFF00",
"o  c #2D0A00",
"A. c #B36E17",
"%o c #B9751B",
"&o c #B9751D",
"mO c #763D0F",
"Lo c #9A5501",
"{O c #7C4417",
"[o c #B98139",
"|+ c #B9813A",
"{+ c #BF883B",
"r  c #883A00",
"%O c #BF883C",
"zO c #BF883D",
"]+ c #C58F3E",
".@ c #BF883F",
"!O c #C58F40",
"3# c #754C0B",
"^X c #A6630E",
"rO c #C58F42",
"c. c #A6691B",
"6. c #B26B0E",
"H. c #AC6A16",
"+X c #AC6A17",
"TX c #B87818",
"t  c #5D1E00",
"hX c #AC6A18",
"F  c #0D0500",
">. c #B2711E",
"S@ c #B87E28",
"Co c #B87E2A",
"(o c #B87E30",
"%  c #190700",
"=  c #B84E00",
"++ c #A56C12",
"'o c #BE8539",
"CO c #934B06",
"QO c #C48C3C",
"SO c #623406",
"v# c #311D07",
"=@ c #2B1607",
"]  c #A55401",
/* pixels */
"                                                                                                ",
"                                                                                                ",
"                                                                                                ",
"                                                                                                ",
"                                                                                                ",
"                                                                                                ",
"                                                                                                ",
"                                                                                                ",
"                                                                                                ",
"                                                                                                ",
"                                                                                                ",
"                                                    . . . . X o O . + .                         ",
"                                    . . . . @ # $ % & * = - . ; : > , < .                       ",
"                            . . . 1 2 3 4 5 6 . . 7 8 9 0 q w e r t . y . 1 .                   ",
"            . . . . u i p a s d f . 1 g h j k l z x c v b n m M N B V C Z A S .                 ",
". . . D F G H J K L . . P I U Y T R E W Q ! ~ ^ / ( ) _ ` ` ' ] [ { } |  .. ... X..             ",
"o.O.+.@.. . #.$.%.&.*.=.-.;.:.>.,.<.1.2.3.4.5.6.6.7.8.9.0.q.w.e.r.t.y.u.i.p.a.s.d.f..           ",
"g.h.j.k.l.z.x.c.v.b.n.3.m.M.N.B.n.V.C.Z.A.S.D.F.G.H.J.K.A.L.P.I.U.Y.T.R.E.W.Q.!.~.^./.(..       ",
")._.`.'.].[.{.}.|.B. X.XXXoXOX+X@X#X$X%X&X*X=X-X;X2.:XOX>X,X<X1X2XI.3X4X5X6X7X8X9X0X. qX- wX.   ",
"eXrXtXyXuXiXpXaXsXdXfXgXhXjXkXlXzXxX=XcXvXbXnXmXMXNXBXVXCXZXAXSXsXDXFXGXHXJXKXLXPXIXUXYXTXRXEX. ",
"WXQX!X~X^X/X(X)X_X`XC.'X]X[X{X}X|X X o.oXoZ.ooOo+o@o#o$o%o&o'X*o=o-o;o:o>o,o<o1o2o3o4o5o6o. 7o. ",
"8o9o0oqowoeorotoyouoio|.|XpozXaosodo@ofo@odogoxXhojokolozoxocovobonomoMoNoBoVoCoZoAoSoDoFoGoHoJo",
"KoLoPoIoUoYoTonoRoEoWoQo!o~o^o/o(o)o_o`o'o;o]o[o{omono}o|o O.OXOoOOO+O@O#O$O%O&O*O=O-O;O:O>O,O<O",
"1O2O3O4O5O6O7O8O9O0O.OqOwOeOrOtOyO{ouOiOpO OaOsO OdOfOgOgO9OhOEotOmojOdOkOlOzOxO@OcOvObOnOmOMONO",
"BOVOCOZOAO. SODOFOGOHOJOKOLOPOIOUOyOYOTO{oKOROEO9OWOQO!OEo~O^O/O(O)Ono_O`O'O]O[O{O}O|O +.+X+o+. ",
"O+++@+#+$+. . %+&+*+=+%OwO-+;+:+No>+,+<+JO1+eO2+~O{o3+4+^Ono5+5+6+7+8+9+0+q+w+e+r+t+y+u+i+p+a+s+",
"d+f+g+h+j+. . . k+l+z+x+c+v+oOb+n+m+tOyO'OfOM+N+B+V+C+Z+A+S+D+F+G+H+J+K+L+P+I+. . U+Y+T+R+E+W+Q+",
"!+~+^+/+(+. . . . )+_+`+'+]+[+{+}+|+ @pO.@X@o@Z+MoO@+@@@#@$@%@&@*@=@-@. . . . . . . ;@:@>@,@<@1@",
"2@3@4@5@6@. . . . . 7@8@9@0@q@w@e@r@o@_OlOt@y@u@i@p@a@s@d@f@g@h@j@k@. . . . . . . . l@z@x@c@v@b@",
"n@m@M@N@B@. . . . . . V@C@Z@A@S@D@F@G@H@J@K@8 L@P@I@U@. . . Y@T@R@E@. . . . . . . . W@Q@!@~@^@/@",
". . . . . . . . . . . . . (@)@_@`@'@]@[@{@}@@ . . . . . . . . . . . . . . . . . . . D |@ #.#X#o#",
". . . . . . . . . . . . . 1 O#+#@###$#. . . . . . . . . . . . . . . . . . . . . . . u %#&#*#=#-#",
". . . . . . . . . . . . . 1 ;#:#>#,#$#. . . . . . . . . . . . . . . . . . . . . . . Y@<#1#2#3#4#",
". . . . . . . . . . . . . 1 5#6#7#8#$#. . . . . . . . . . . . . . . . . . . . . . . . 9#0#q#w#. ",
"  . . . . . . . . . . . . 1 e#r#t#y#$#. . . . . . . . . . . . . . . . . . . . . . . . . . . . u#",
"    . . . . . . . . . . . 1 i#p#a#s#. . . . . . . . . . . . . . . . . . . . . . . . . . . . . . ",
"        . . . . . . . . . 1 & d#f#g#. . . . . . . . . . . . . . . . . . . . . . . . . . . . . . ",
"          . . . . . . . . h#j#k#l#z#. . . . . . . . . . . . . . . . . . . . . . . . . . . . . . ",
"            . . . . . . . x#c#v#b#n#. . . . . . . . . . . . . . . . . . . . . . . . . . . .     ",
"                . . . . . . m#M#N#B#. . . . . . . . . . . . . . . . . . . . . . .               ",
"                  . . . . 1 . . . . . . . . . . . . . . . . . . . . .                           ",
"                    . . . . . . . . . . . . . . . . . . . . .                                   ",
"                      . . . . . . . . . . . . . .                                               ",
"                          . . . . . . . .                                                       ",
"                                                                                                ",
"                                                                                                ",
"                                                                                                ",
"                                                                                                "
};
