/* XPM */
static const char *tr_trigger_xpm[] = {
/* columns rows colors chars-per-pixel */
"48 48 893 2",
"^  c Black",
"E# c #BE6D2B",
",# c #B8723B",
"oo c #66C562",
"&+ c #C47430",
"W+ c #53BF4B",
"s$ c #934B1A",
"a$ c #934B1B",
"{+ c #BE7941",
"6  c #C47A3A",
"S@ c #C47433",
" + c #3AB237",
"^O c #CA7B37",
"@+ c #C48046",
"y% c #9F531D",
"7% c #9F531E",
".$ c #9F5925",
",% c #9F531F",
"Ho c #CA874C",
"[+ c #59C054",
"3X c #D68339",
"9o c #59C055",
"jo c #D6833A",
"#  c #D08E51",
"A  c #AB672B",
"[. c #D08E52",
">. c #DC9046",
"D$ c #AB5B21",
" . c #DC9047",
"^@ c #2DAD2B",
"3$ c #AB6730",
"m# c #AB6129",
"`# c #019A01",
"D. c #E29D55",
"KX c #4CBB49",
"H# c #924E17",
"-X c #4CBB4A",
"O@ c #C3712D",
"uO c #C37736",
"3@ c #6BC965",
"++ c #52BC4E",
"'O c #C97833",
"Qo c #52BC4F",
"7O c #3FB63A",
".X c #CF7F37",
"d  c #CF7F38",
"Jo c #CF7F3A",
"Q  c #D5924B",
"g$ c #A45720",
"=  c #CF8B4E",
";% c #794118",
"6. c #DB8D45",
"AX c #45B743",
"($ c #B05F23",
"b$ c #542C10",
"D# c #B06B33",
"n. c #009700",
"y+ c #024F02",
"i# c #B66C32",
"yX c #009100",
"jO c #2C9E2B",
">O c #4BB84A",
"E$ c #8B4A1F",
"a@ c #736A65",
"2O c #38B234",
"X# c #C87530",
"-o c #C87B39",
"aX c #008500",
"e+ c #CE7C35",
"Co c #57C051",
"D+ c #CE7C36",
"v$ c #723D16",
"pO c #D4833A",
"1+ c #2BAD27",
"S# c #4D280E",
"c+ c #A96730",
"L+ c #A96732",
"}X c #5DC159",
"h@ c #4ABB44",
"f  c #B5692B",
"B@ c #31AE2F",
"H$ c #B56326",
"6X c #B5753C",
"b# c #B56F38",
"c. c #5D851E",
"T# c #BB6A2B",
"2+ c #69C95F",
"s+ c #69C960",
"x# c #448A21",
"C@ c #BB763E",
"># c #059505",
"h+ c #C17D43",
"v+ c #6B3915",
"[O c #6B3916",
"4. c #CD7F3B",
"{. c #CD8544",
"%O c #D38037",
"BX c #56BD52",
"`. c #56AB3D",
"Y@ c #005B00",
"N. c #D38641",
"dX c #CD8B50",
"z@ c #2AAA28",
"8. c #D98D44",
"p  c #D9873D",
"*% c #A8581F",
"*. c #D98D45",
"i  c #D9873E",
"A$ c #A85820",
"`  c #D39257",
"m$ c #AE652C",
"0# c #B46C33",
"4O c #36B231",
"bO c #36B232",
"V@ c #1DA51C",
"/  c #FFFFFF",
"R# c #C06E2C",
"q+ c #C67531",
"NO c #55C04D",
"7$ c #954C1B",
"6$ c #954C1C",
"v# c #55C050",
">o c #CC7C36",
"<+ c #3CB339",
"F+ c #CC7C37",
"M  c #A16029",
"t% c #A1541D",
">% c #A1541E",
"YX c #D2833D",
"f+ c #74CE6A",
"Z$ c #A15420",
"hX c #D88A44",
"u% c #AD5C21",
"o$ c #AD6830",
"!  c #B37B3F",
"X. c #B3692B",
";O c #002B00",
"j$ c #B36325",
"#@ c #AD7444",
"u. c #039B03",
";X c #039503",
"@O c #C57837",
"c  c #9A5C27",
"t@ c #CB7933",
"4+ c #54BD4F",
"e@ c #CB7934",
"<% c #9A501F",
"Z. c #D7873F",
"k. c #AC773D",
"l. c #1F150A",
"4% c #7B4218",
" % c #AC591C",
"n+ c #28A426",
"BO c #60C557",
"EO c #60C558",
"w# c #677521",
"FX c #47B845",
"e$ c #B86728",
"i. c #029802",
"C# c #B86729",
"wX c #4DB94A",
"vo c #4DB94B",
"6% c #9F6020",
"}  c #C48746",
"Z+ c #C47533",
"k@ c #21A620",
"gX c #CA7C39",
"z% c #9F541D",
"$% c #9F541F",
"E. c #D68439",
"!. c #D6843B",
"p# c #996B48",
"TO c #2DAE29",
"U. c #D08F53",
"2$ c #4F290F",
"t+ c #AB6832",
"%# c #8C5A23",
"wo c #5FC25A",
"j% c #B15D21",
"|X c #5FC25B",
"+# c #804C25",
"%@ c #4F3523",
"R+ c #4CBC45",
"%% c #86471A",
"b+ c #034D03",
"_+ c #6BCA61",
"QO c #6BCA62",
"aO c #C97934",
"#+ c #C97936",
"A# c #6D3A15",
"5+ c #C37E45",
"=+ c #CF803A",
"mX c #209D1F",
"Fo c #71CB6A",
"*  c #CF8C4E",
"&  c #CF8C4F",
",o c #D58741",
"%. c #DB883D",
"q% c #AA591F",
"X% c #AA5920",
"V. c #DB8E46",
"SX c #45B844",
"q$ c #B06024",
"@. c #009800",
"H  c #B66D2E",
"T$ c #8B4B1C",
"a# c #BC6E2F",
"x  c #975926",
"+o c #6AC765",
" # c #C87632",
" O c #57C14F",
"uX c #008600",
"wO c #57C150",
"_  c #CE7D36",
"-% c #9D541F",
"WX c #CE7D37",
"+% c #9D5420",
"N  c #A36129",
"$# c #472E1C",
"#$ c #8A541A",
"D  c #AF692C",
";@ c #5DC258",
"i@ c #A96834",
"X+ c #31AF2C",
"^# c #AF6931",
"YO c #31AF2D",
"T  c #B56A2B",
")@ c #31AF2E",
"&$ c #AF6934",
".o c #63C35E",
"B$ c #904919",
"0@ c #C17231",
"y# c #059605",
"b  c #9C5D27",
"/X c #6B3A16",
"$. c #CD803C",
"7o c #56BE52",
"ko c #D38138",
"no c #56BE53",
"1  c #CD8648",
"MO c #43B83D",
"l@ c #2AAB28",
"y  c #D9883E",
"t  c #D9883F",
"g  c #D39357",
"9. c #DF9B51",
"Y# c #AE6026",
"/+ c #62C659",
"KO c #AE6C35",
"$$ c #049F04",
"^X c #B4733B",
"d@ c #004A00",
"w$ c #BA6828",
"V# c #C06F2D",
"[@ c #BA743C",
"bo c #4FBA4C",
"Wo c #4FBA4D",
"r+ c #C67632",
"6O c #3CB436",
"w@ c #C67634",
"w+ c #CC7D38",
"yO c #CC7D39",
"k% c #A1551E",
"8% c #A1551F",
"*o c #CC894E",
"4X c #D88B44",
"X  c #D29054",
"[$ c #7C4017",
"x$ c #AD5D22",
"eo c #61C35C",
"{o c #4EBD47",
"qO c #4EBD48",
"l# c #C57938",
"fO c #CB7A34",
"X$ c #6F3B16",
"$X c #549424",
"U$ c #190901",
"#. c #D78840",
"8X c #4A260D",
"R  c #D78841",
"Y+ c #28A526",
"1% c #AC5A20",
"v@ c #2EAC2A",
"a. c #DD8F47",
"b@ c #2EAC2B",
"n@ c #2EAC2C",
",$ c #B26125",
"k# c #B26D33",
"T. c #A67D59",
"qX c #4DBA4C",
"'. c #4DBA4D",
"G% c #683713",
"## c #564C46",
"G@ c #CA7732",
"io c #6CC866",
"%X c #53AF41",
"@o c #6CC867",
"L@ c #624836",
"!+ c #59C251",
"`O c #D07E36",
"w% c #9F551F",
"zX c #D6853C",
"Q$ c #A5561F",
"|. c #D68B45",
"s% c #4F2A0F",
"Ao c #5FC358",
"_X c #46B645",
"vO c #33B02F",
"`@ c #33B030",
"l$ c #B76527",
"u# c #B77139",
"4$ c #BD7234",
"K+ c #C37330",
"*+ c #C37331",
"Bo c #52BE4C",
"9@ c #BD783F",
"w. c #0B0703",
"}+ c #C37332",
"H. c #3C2A15",
"S+ c #C97A37",
"n  c #9E5E28",
"3+ c #71CC67",
"<$ c #9E5824",
"P+ c #6D4121",
"OO c #C9864B",
":o c #D58238",
"EX c #D58239",
"8o c #58BF54",
"Q. c #D58842",
",X c #CF8D51",
"'o c #45B93F",
"]  c #DB893E",
"/$ c #AA5A20",
"z. c #DB8F46",
"c@ c #2CAC2A",
"5$ c #AA5A21",
"XX c #DB8F49",
"+. c #009900",
"%o c #77CD71",
"h. c #E19C53",
"~o c #4BBA47",
":X c #009300",
"JX c #4BBA48",
"B# c #C2702D",
"sX c #008D00",
"N# c #C2702E",
"SO c #C27635",
"'X c #51BB4E",
";+ c #C87733",
"pX c #008700",
"lO c #51BB4F",
"l+ c #C87734",
")o c #3EB538",
"W. c #CE7E38",
"+O c #CE7E3A",
".% c #A3561F",
";  c #CE8A4C",
"U  c #DA8C42",
"O% c #AF5E22",
"]$ c #532B0F",
"p+ c #31B02D",
"]+ c #7CD171",
"ro c #63C45E",
"Eo c #4AB748",
";# c #50BE4C",
"N$ c #904A1A",
"m. c #059705",
"I  c #C77A37",
"fo c #C77A38",
"N+ c #6FCC65",
"x+ c #CD7B34",
"D% c #9C521D",
"y$ c #713C16",
"<  c #CD8748",
",  c #CD8749",
"A% c #A2531D",
"W  c #D98F46",
"r  c #D9893F",
"OX c #D98941",
"{X c #5CC058",
"9  c #D39459",
"v% c #AE5B20",
"s@ c #4C3321",
"8$ c #AE6732",
"M@ c #30AD2E",
"J$ c #B46225",
"HX c #49BA47",
"f# c #BA6929",
"L# c #049A04",
"6# c #BA692A",
"1X c #B47A47",
"VO c #68C860",
"LO c #004500",
"8@ c #4FBB4B",
"j+ c #C67734",
"a+ c #3CB537",
"z  c #A1622B",
"Go c #55BC51",
"#o c #6EC969",
"~+ c #5BC353",
"#% c #A15622",
"UO c #42B63F",
"CX c #42B640",
"oX c #D88C45",
"2. c #D29156",
":% c #512B0F",
"=. c #DE9950",
"F. c #E4A054",
"co c #48B747",
"3O c #35B130",
"G. c #BF8544",
"'@ c #35B132",
"8  c None",
"|+ c #B96C2F",
"P# c #039703",
"W@ c #4EBE4B",
"+@ c #BF6D2B",
"o# c #BF7334",
"z+ c #C57431",
"o@ c #C57432",
"Vo c #54BF4E",
"/. c #CB8D49",
"Po c #CB7B35",
"X@ c #CB7B36",
"DO c #CB7B37",
"m  c #A05F28",
"M$ c #A0531D",
"=o c #D1823C",
"HO c #D1823D",
"A. c #D78339",
"~. c #D78941",
"kX c #D78943",
"*@ c #28A627",
"@  c #D18E52",
"S$ c #AC5B20",
"=% c #AC5B21",
"nX c #000900",
"0  c #DD9048",
"a% c #814519",
"o+ c #66C85D",
"n# c #B8692C",
"LX c #4DBB4A",
"T@ c #349C25",
"5o c #53BC4F",
"]X c #53BC50",
"|O c #53BC51",
"_o c #40B63A",
"P. c #53BC53",
"V  c #A5632A",
"g# c #9F6233",
"K# c #2DB02C",
"9# c #49301E",
"'$ c #552C10",
"'# c #B16B35",
"to c #65C55F",
"#X c #613A1A",
"P  c #C37431",
"t# c #52BF4D",
"'+ c #71CD67",
"V$ c #6D2A06",
"+X c #CF8E4D",
" X c #D58339",
"f. c #D5833A",
".+ c #2CAD28",
"~@ c #2CAD2A",
"1# c #987052",
"7@ c #77CE6F",
"qo c #5EC159",
"O. c #009A00",
"y. c #19A719",
"[o c #4BBB44",
"^. c #E7A457",
"W$ c #85461A",
":# c #009400",
"R@ c #4BB543",
":$ c #BC6A29",
"K  c #BC7030",
";$ c #BC6A2A",
"k+ c #BC7031",
"d# c #C2712E",
"J+ c #C2712F",
"F# c #C27737",
"!O c #51BC4C",
"~  c #3B2814",
"!o c #51BC4E",
"GO c #C87833",
"iX c #008800",
"6+ c #C87835",
" @ c #C87836",
"tO c #C88449",
"n% c #9D501D",
"Io c #D4863F",
"$o c #70CA6B",
"-  c #CE8B4D",
"Lo c #D48640",
"u+ c #25A324",
"VX c #57BD55",
"eO c #5DC455",
"^o c #44B740",
"0% c #A9581F",
"ZX c #44B742",
"r$ c #AF5F23",
"C% c #532C10",
"So c #63C55C",
"@# c #845532",
"M+ c #37B232",
"E@ c #50BF4A",
"_# c #FF1DD0",
"/O c #C17434",
"0+ c #C77530",
".# c #C77531",
"e. c #CD7C35",
"Uo c #CD7C36",
"xX c #D3833B",
"h% c #A2541D",
">  c #CD884A",
"fX c #D3833D",
"Z% c #A2541F",
"sO c #D3833E",
"(. c #4C341A",
"0$ c #A85B22",
"C. c #D98A42",
"d. c #D98A43",
"j. c #DF9D52",
"S  c #AE682C",
"h$ c #AE5C21",
"7  c #B4692B",
" $ c #B46326",
"U+ c #004C00",
")+ c #68C95F",
"{@ c #BA7034",
"j@ c #4FBC4A",
"q. c #956735",
"PX c #4FBC4C",
"e# c #4FB646",
"r. c #BA642B",
"7X c #6A3915",
"v  c #9B5C27",
"f% c #954F21",
",+ c #36A935",
"4@ c #6ECA66",
"x% c #9B501D",
"6o c #55BD51",
"&o c #55BD52",
"*O c #D28037",
"rX c #55BD53",
"2  c #CC8547",
"=@ c #42B73D",
"C  c #A7642A",
"f@ c #29AA27",
"a  c #D8873D",
"u  c #D8873E",
"j# c #4B2B14",
".  c #D29256",
"]O c #AD6B34",
"p@ c #A77044",
"1o c #B3723A",
"|  c #5D4021",
"O$ c #BF7435",
"yo c #67C661",
"`X c #4EB94C",
"|o c #54C04D",
"zo c #001C00",
"k  c #CB823D",
"AO c #CB7C38",
"~O c #C58147",
"8+ c #CB7C39",
"9% c #A0541F",
"iO c #D1833E",
"so c #CB884D",
"`$ c #753E17",
"Zo c #5AC154",
"7. c #D7843A",
"S% c #A6551C",
"+  c #D18F52",
"O  c #D18F53",
"K$ c #AC5C21",
")  c #DD9147",
"+$ c #AC5C22",
"/@ c #2EAE2C",
"*$ c #B26327",
"c% c #EF882C",
"Ro c #289B28",
"q@ c #B86A2D",
"7+ c #BE7132",
"s# c #C4722E",
"H+ c #C4722F",
"d+ c #6CCA62",
"PO c #34A934",
"mo c #53BD4E",
"JO c #CA7934",
"do c #D0803B",
"m% c #9F511D",
";. c #7A542B",
"3. c #D68740",
"%  c #D08C4F",
"ho c #D68741",
"^+ c #5FC556",
"d% c #9F5125",
"Y$ c #4F260C",
"}@ c #9F6F4A",
"J. c #DC8E46",
"R$ c #804318",
"DX c #46B844",
"G# c #B16024",
"U# c #B7672A",
"<@ c #65C65F",
"<O c #4CB949",
"*X c #4CB94A",
"kO c #4CB94B",
"5O c #39B333",
"nO c #39B334",
"m+ c #39B335",
"j  c #C97C38",
"F@ c #C97631",
"TX c #C97C39",
"t. c #0DA615",
"-+ c #CF7D35",
"3% c #9E541F",
"L$ c #733E17",
"|$ c #9E5423",
"$O c #D5843B",
"7# c #9E6639",
"{  c #DB974E",
"B+ c #77CF6D",
"~# c #4E290F",
"=$ c #AA5C24",
"o. c #B0692B",
"i% c #B05D21",
"-O c #B06F37",
"l% c #854719",
"0O c #4BBC45",
"xo c #269B26",
"xO c #32AF2E",
"_@ c #32AF2F",
"G$ c #B66426",
"1. c #009500",
"{O c #085A08",
"|# c #BC6B2A",
"i$ c #BC7133",
"Q@ c #008F00",
"No c #51BD4C",
"Mo c #51BD4D",
"9X c #1FA31E",
"J@ c #BC8354",
"vX c #6C3A16",
"t$ c #9D5723",
"5@ c #70CB68",
"'  c #CE803C",
"Y. c #CE8644",
"V+ c #57BE52",
"go c #D48138",
"-@ c #44B83F",
"Z  c #A9652B",
"K@ c #858380",
"p$ c #A9591F",
"[  c #DA8E45",
"s  c #DA883E",
"x@ c #2BAB29",
"~$ c #A95920",
"e% c #7E4318",
"WO c #63C65A",
"XO c #63C65B",
"A+ c #BB6E30",
"@@ c #C16F2C",
"<. c #8F7F30",
"uo c #69C763",
"Oo c #69C764",
"(O c #C77631",
"IO c #50BA4E",
"G+ c #C77633",
"Q+ c #56C14E",
"). c #C77C3C",
",. c #CD7D35",
"zO c #3DB439",
".. c #CD7D36",
"c# c #56C152",
"jX c #CD7D37",
"n$ c #9C5A28",
":  c #CD894B",
"!$ c #A2551F",
"@% c #773F17",
"_. c #A7953B",
"0. c #D9974F",
":@ c #5CC256",
"S. c #D98B43",
"{$ c #7D4016",
"3o c #249B23",
"cO c #30AF2C",
"(@ c #30AF2D",
"A@ c #B46A2F",
"E+ c #4FBD48",
"L  c #C07230",
"|@ c #C07232",
"I@ c #524842",
"4# c #C6732F",
":. c #C67F3E",
"(  c #C67F3F",
"Ko c #C67938",
"$@ c #7D7066",
"`+ c #6ECB64",
"O+ c #6ECB65",
".@ c #CC7A33",
"g+ c #55BE51",
"`o c #42B83D",
"q  c #D8883F",
"ao c #74CC6E",
"d$ c #A75F2B",
"hO c #002F00",
"r# c #61C65A",
"m@ c #2FAC2D",
")$ c #B36124",
"P$ c #572E10",
"GX c #48B946",
"F$ c #B36125",
"I# c #B36D36",
"P@ c #825634",
"{# c #B9682A",
"V% c #8E4C1B",
"1@ c #67C760",
"Do c #67C761",
"oO c #4EBA4A",
"I$ c #070301",
"*# c #4EB444",
",O c #4EBA4B",
"eX c #4EBA4C",
"C+ c #BF7B42",
"!@ c #22A720",
"H@ c #CB7730",
"p% c #A0551E",
"5  c #CB8344",
"Q# c #A05B26",
".O c #5AC252",
"1O c #41B53D",
"lX c #D7853A",
"g% c #A6561E",
"2X c #D78B44",
"o  c #D19053",
"M. c #D19054",
"p. c #D19055",
"5% c #502A0F",
":+ c #AC6933",
"F  c #B26A2D",
"Yo c #B27038",
" o c #60C35D",
"4o c #47B646",
"u@ c #A67A56",
"i+ c #34B031",
"}# c #BE6C2B",
"&O c #CA7A35",
"9+ c #CA7A36",
"!# c #6E3B16",
"_O c #D0813C",
"6@ c #72CC6B",
";o c #D68842",
"[X c #59BF56",
"$  c #D08D50",
"K. c #A4862E",
"8O c #46B93F",
"g@ c #46B941",
"o% c #AB5A20",
"u$ c #AB662F",
"s. c #DC8F47",
"b. c #46B946",
"9$ c #B16126",
"(+ c #65C75C",
"}. c #A57D5A",
"rO c #65C75D",
"<# c #B76E34",
"2# c #BD6F31",
"&X c #4CBA4D",
"]@ c #20A71E",
"l  c #C37C3A",
"%+ c #C97732",
"D@ c #C97733",
"]. c #52BB50",
"J# c #26AE28",
"-. c #CF904B",
"Y  c #CF7E36",
"~X c #CF7E37",
"/o c #3FB53B",
"r% c #A4561A",
"<X c #CF8440",
"B  c #A46229",
"&% c #A4561F",
">@ c #5EC358",
"MX c #45B643",
"z$ c #B66526",
">X c #009600",
"W# c #B66527",
"IX c #32B031",
"-$ c #B66528",
"M# c #BC6C2D",
"Xo c #64C460",
"}o c #51BE4A",
"@X c #9D6430",
"x. c #CE7B35",
"}O c #38AB38",
"E  c #CE813D",
"<o c #D48238",
"   c #C8864D",
"!X c #D48239",
"8# c #605751",
"e  c #DA893F",
"w  c #DA8940",
"gO c #AF6D36",
"N@ c #31AD2E",
"tX c #4ABA48",
"cX c #B5743C",
"I. c #4ABA49",
">$ c #BB6929",
"F% c #904D1B",
"/# c #C17636",
"2@ c #69C862",
"CO c #50BB4B",
"NX c #50BB4D",
")O c #C77733",
"=# c #56C24F",
"mO c #3DB537",
"@$ c #964E1D",
"(o c #3DB538",
"T+ c #3DB539",
"_$ c #9C5520",
"c$ c #9C5521",
"ZO c #C78348",
"h# c #654935",
"B% c #A2561E",
"#O c #D3853F",
"}$ c #A25622",
"z# c #A85D22",
"-# c #5CC355",
"UX c #CD8A4F",
"&. c #D9863B",
"N% c #A8571E",
"C$ c #150000",
"g. c #D98C44",
"I+ c #4C2A12",
"0X c #43B642",
"(# c #AE5E23",
"q# c #B47134",
"G  c #B46B2D",
"]# c #B46529",
"b% c #89491A",
">+ c #065506",
"&@ c #004800",
":O c #2A9D2A",
"L. c #49AB3B",
"$+ c #C07333",
"5# c #C6742F",
"B. c #C07F45",
"3# c #C67431",
"M% c #954B1A",
"y@ c #C07940",
"=O c #CC7B35",
"O# c #95633A",
"1$ c #703C16",
"U@ c #452C1A",
"f$ c #A75A22",
"h  c #D88941",
"bX c #4B270E",
"QX c #D88942",
"0o c #5BC057",
"&# c #68832B",
"]o c #48BA41",
"^$ c #AD5B20",
"9O c #48BA42",
"5. c #DE9048",
"J  c #B96F2F",
"To c #002400",
"Z@ c #BF7030",
"2o c #001800",
"r@ c #CB7832",
"po c #6DC967",
")# c #9A4F1E",
"FO c #D17F36",
"dO c #D17F37",
"=X c #54BC52",
"4  c #CB8445",
"Z# c #A05C27",
"3  c #CB8446",
"(X c #001200",
"5X c #D7863C",
")X c #229C21",
"RX c #D7863D",
"2% c #A6571F",
"R. c #D78C46",
"v. c #41B642",
"[# c #AC5E25",
"%$ c #029D01",
",@ c #60C45A",
"lo c #B27139",
"RO c #34B12F",
"k$ c #B86627",
/* pixels */
"  . X X X X o O + @ # $ % & * = - ; ; : > > , < 1 2 2 3 4 5 6 7 7 8 8 8 8 8 8 8 8 8 8 8 8 8 8 8 ",
"9 0 q q q w w e e r t t t t t t y y y y u y i p p a a a a s d f 7 8 8 8 8 8 8 8 8 8 8 8 8 8 8 8 ",
"g h j k l z x c v b n m M N B V C Z A S D F G H J K L P I U Y T 7 8 8 8 8 8 8 8 8 8 8 8 8 8 8 8 ",
"g R E W Q ! ~ ^ ^ ^ ^ ^ ^ ^ ^ ^ ^ ^ ^ ^ ^ ^ ^ ^ ^ ^ ^ / ( ) _ 7 7 8 8 8 8 8 8 8 8 8 8 8 8 8 8 8 ",
"` R ' ] [ { } | ^ ^ ^ ^ ^ ^ ^ ^ ^ ^ ^ ^ ^ ^ ^ ^ ^ ^ ^ ^ (  ...X.o.O.+.@.8 8 8 8 8 8 8 8 8 8 8 8 ",
"` #.$.%.&.*.=.-.;.^ ^ ^ ^ ^ ^ ^ ^ ^ ^ ^ ^ ^ ^ ^ ^ ^ ^ ^ :.>.,.X.<.1.+.@.8 8 8 8 8 8 8 8 8 8 8 8 ",
"2.3.4.5.6.7.8.9.0.q.w.^ ^ ^ ^ ^ ^ ^ ^ ^ ^ ^ ^ ^ ^ ^ ^ ^ :.>.e.r.t.y.u.i.8 8 8 8 8 8 8 8 8 8 8 8 ",
"p.3.4.a.s.d.f.g.h.j.k.l.^ ^ ^ ^ ^ ^ ^ ^ ^ ^ ^ ^ ^ ^ ^ ^ :.z.x.c.v.b.n.m.8 8 8 8 8 8 8 8 8 8 8 8 ",
"M.N.B.V.y C.Z.A.S.D.F.G.H.^ ^ ^ ^ ^ ^ ^ ^ ^ ^ ^ ^ ^ ^ ^ :.J.K.L.P.I.n.m.8 8 8 8 8 8 8 8 8 8 8 8 ",
"U.Y.T.R.y E.W.Q.!.~.D.^./.(.^ ^ ^ ^ ^ ^ ^ ^ ^ ^ ^ ^ ^ ^ )._.`.'.].I.n.m.8 8 8 8 8 8 8 8 8 8 8 8 ",
"[.{.}.|.y  X.XXXoXf.OX+X@X#X^ ^ ^ ^ ^ ^ ^ ^ ^ ^ ^ ^ ^ ^ $X%X&X*X=X-Xn.;X:X:X:X:X:X:X:X:X:X:X:X>X",
",X<X1X2Xy 3Xd S.t 4X5X6X7X8X^ ^ ^ ^ ^ ^ ^ ^ ^ ^ ^ ^ ^ 9X0XqXwXeXrXtXyXuXiXpXpXpXpXuXuXuXuXaXaXsX",
"dXfXgXhXu  XjXkXlXzXxXcXvXbX^ ^ ^ ^ ^ ^ ^ ^ ^ ^ ^ nXmXMXeXwXeXNXBXVXCXZXAXSXDXFXGXHXtXJXKXLXPXIX",
"UXYXTXkXRXEXWXQX7.!X~X^X/XbX^ ^ ^ ^ ^ ^ ^ ^ ^ ^ (X)X_X`X*XeXNX'X]X[X{X}X|X o.oXoooOo+o@o#o$o%o&o",
"*o=o-o;o5X:o>o,o7.<oY 1ovXbX^ ^ ^ ^ ^ ^ ^ ^ ^ 2o3o4o`XwXeXNX'X5o6o7o8o9o0oqowoeorotoyouoiopoao&o",
"sodofo,ozXgo>ohojoko_ lovXbX^ ^ ^ ^ ^ ^ ^ ^ zoxoco`XvoboNX'X]X6ono7o6omoMoNoNoBoVoCoZoAoSoDoFoGo",
"HoJoKoLo!.koPoIo3XkoUoYovXbX^ ^ ^ ^ ^ ^ ^ ToRoEo`XvoWoNXQo]X!o~o^o/o(o)o_o`o'o]o[o{o}o|o O.OXOoO",
"OO+O@O#O$O%O&O#O:o*O=O-O/XbX^ ^ ^ ^ ^ ^ ;O:O>O`X,OWo'X'X<O1O2O3O4O5O6O7O`o8O9O0OqO}o|owO.OeOrOoO",
"tOyOuOiOpO*OaOsO<odOfOgO/XbX^ ^ ^ ^ ^ hOjOkOeXeXNXlO<OzOxOcOvObOnOmO7OMO8O9O0OqO}oNOwO.OeOBOVOCO",
"ZOAOSODOe.FOGOHOgoFOJOKO/XbX^ ^ ^ ^ ^ LOPOlOWoIONXUOYOTOcORObOnOmO7OMO8O9O0OqO}oNOwO.OeOEOWOQO!O",
"~O^O/OfO(OfO)O_O*O`O'O]O[ObX^ ^ ^ ^ ^ ^ {O}O|Obo +.+TOX+RObOnOmO7OMO8O9O0OqO}oNOwO.OeOEOWOo+O+++",
"@+#+$+JO%+&+*+=+FO-+;+:+[ObX^ ^ ^ ^ ^ ^ ^ >+,+<+1+TOX+RObOnOmO7OMO8O9O0OqO}oNOwO.OeOEOWOo+2+3+4+",
"5+6+7+8+9+0+q+w+`Oe+r+t+[ObX^ ^ ^ ^ ^ ^ ^ ^ y+u+i+p+RObOnOa+7OMO8O9O0OqO}oNOwO.OeOEOWOo+s+d+f+g+",
"h+j+k+8++Ol+0+z+'Ox+z+c+v+bX^ ^ ^ ^ ^ ^ ^ ^ ^ b+n+m+M+nOa+7OMO8O9O0OqO}oNOwO.OeOEOWOo+s+d+N+B+V+",
"C+Z+A+S+D+F+G+H+J+q+K+L+P+I+^ ^ ^ ^ ^ ^ ^ ^ ^ ^ U+Y+T+)o7OMO8O9OR+E+W+Q+!+~+^+/+(+)+_+`+'+f+]+[+",
"{+}+|+ @=O.@X@o@O@+@@@#@$@%@^ ^ ^ ^ ^ ^ ^ ^ ^ ^ ^ &@*@=@-@8O9O0O}o;@Zo:@>@,@So<@1@2@3@4@5@6@7@8@",
"9@0@q@w@e@r@t@JOy@u@i@p@a@s@^ ^ ^ ^ ^ ^ ^ ^ ^ ^ ^ ^ d@f@g@h@0O{owOj@k@l@z@l@x@c@v@b@n@m@M@N@B@V@",
"C@Z@A@S@D@F@G@H@J@K@L@P@I@U@^ ^ ^ ^ ^ ^ ^ ^ ^ ^ ^ ^ ^ Y@T@R@E@}o.OW@Q@!@~@~@^@/@cO(@)@_@`@i+'@]@",
"[@{@}@|@ #.#0+X#o#O#+#@###$#^ ^ ^ ^ ^ ^ ^ ^ ^ ^ ^ ^ ^ ^ %#&#*#=#-#;#:#>#8 8 8 8 8 8 8 8 8 8 8 8 ",
",#<#1#2#3#4#5#5#5#4#6#7#8#9#^ ^ ^ ^ ^ ^ ^ ^ ^ ^ ^ ^ ^ ^ 0#q#w#e#r#t#:#y#8 8 8 8 8 8 8 8 8 8 8 8 ",
"u#i#p#a#H+s#s#s#s#d#f#g#h#j#^ ^ ^ ^ ^ ^ ^ ^ ^ ^ ^ ^ ^ ^ k#l#z#x#c#v#:#y#8 8 8 8 8 8 8 8 8 8 8 8 ",
"b#n#m#M#N#B#B#B#B#V#C#Z#A#S#^ ^ ^ ^ ^ ^ ^ ^ ^ ^ ^ ^ ^ ^ D#F#G#H#J#K#L#P#8 8 8 8 8 8 8 8 8 8 8 8 ",
"I#U#Y#T#V#R#R#R#R#E#W#Q#!#~#^ ^ ^ ^ ^ ^ ^ ^ ^ ^ ^ ^ ^ ^ ^#/#(#)#_#+.`#+.8 8 8 8 8 8 8 8 8 8 8 8 ",
"'#]#[#{#E#}#}#}#}#|# $.$X$~#^ ^ ^ ^ ^ ^ ^ ^ ^ ^ ^ ^ ^ ^ o$O$+$@$#$$$%$O.8 8 8 8 8 8 8 8 8 8 8 8 ",
"&$*$=$-$;$:$;$:$;$>$,$<$1$2$^ ^ ^ ^ ^ ^ ^ ^ ^ ^ ^ ^ ^ ^ 3$4$5$6$7$8 8 8 8 8 8 8 8 8 8 8 8 8 8 8 ",
"8$9$0$q$ $w$w$w$w$e$r$t$y$2$^ ^ ^ ^ ^ ^ ^ ^ ^ ^ ^ ^ ^ ^ u$i$p$a$s$8 8 8 8 8 8 8 8 8 8 8 8 8 8 8 ",
"d$f$g$h$+$j$k$l$k$z$x$c$v$b$^ ^ ^ ^ ^ ^ ^ ^ ^ ^ ^ ^ ^ ^ n$m$M$N$B$8 8 8 8 8 8 8 8 8 8 8 8 8 8 8 ",
"V$C$Z$A$S$D$F$G$H$J$K$c$L$P$^ ^ ^ ^ ^ ^ ^ ^ ^ ^ ^ ^ ^ ^ I$U$Y$T$R$8 8 8 8 8 8 8 8 8 8 8 8 8 8 8 ",
"E$W$Q$!$~$^$/$($)$G#D$_$`$'$^ ^ ^ ^ ^ ^ ^ ^ ^ ^ ^ ^ ^ ^ ^ ^ ]$[${$8 8 8 8 8 8 8 8 8 8 8 8 8 8 8 ",
"8 }$|$ %.%X%^$o%O%O%/$+%@%]$^ ^ ^ ^ ^ ^ ^ ^ ^ ^ ^ ^ ^ ^ ^ ^ ^ ^ 8 8 8 8 8 8 8 8 8 8 8 8 8 8 8 8 ",
"8 8 #%$%%%&%X%/$*%=%X%-%;%:%^ ^ ^ ^ ^ ^ ^ ^ ^ ^ ^ ^ ^ ^ ^ ^ 8 8 8 8 8 8 8 8 8 8 8 8 8 8 8 8 8 8 ",
"8 8 8 >%,%<%&%1%o%2%p$3%4%5%^ ^ ^ ^ ^ ^ ^ ^ ^ ^ ^ ^ ^ ^ ^ 8 8 8 8 8 8 8 8 8 8 8 8 8 8 8 8 8 8 8 ",
"8 8 8 6%7%8%9%0%^$p$q%w%e%5%^ ^ ^ ^ ^ ^ ^ ^ ^ ^ ^ ^ ^ 8 8 8 8 8 8 8 8 8 8 8 8 8 8 8 8 8 8 8 8 8 ",
"8 8 8 8 8 r%t%y%*%u%i%p%a%s%^ ^ ^ ^ ^ ^ ^ ^ ^ ^ ^ 8 8 8 8 8 8 8 8 8 8 8 8 8 8 8 8 8 8 8 8 8 8 8 ",
"8 8 8 8 8 d%f%g%h%o%j%k%l%s%^ ^ ^ ^ ^ ^ ^ ^ ^ ^ 8 8 8 8 8 8 8 8 8 8 8 8 8 8 8 8 8 8 8 8 8 8 8 8 ",
"8 8 8 8 8 8 z%x%c%g%v%.%b%s%^ ^ ^ ^ ^ ^ ^ ^ 8 8 8 8 8 8 8 8 8 8 8 8 8 8 8 8 8 8 8 8 8 8 8 8 8 8 ",
"8 8 8 8 8 8 8 n%m%M%N%B%V%C%^ ^ ^ ^ ^ ^ 8 8 8 8 8 8 8 8 8 8 8 8 8 8 8 8 8 8 8 8 8 8 8 8 8 8 8 8 ",
"8 8 8 8 8 8 8 8 Z%A%S%D%F%G%^ ^ ^ ^ ^ 8 8 8 8 8 8 8 8 8 8 8 8 8 8 8 8 8 8 8 8 8 8 8 8 8 8 8 8 8 "
};
