/* XPM */
static const char *tr_view_xpm[] = {
/* columns rows colors chars-per-pixel */
"48 48 843 2",
"8. c Black",
"EO c #D8D7D8",
",. c #FDFEFE",
"C. c #FDFEFF",
"jO c #CCE7FE",
".+ c #B4CBFF",
"1X c #DEDEDE",
"c+ c #949699",
"f  c #DEDEDF",
"-@ c #757678",
"y@ c #757679",
"P  c #BFBEBF",
"xO c #E4E5E5",
"1# c #E4E5E6",
"DO c #EAFEFE",
"<X c #C5C5C5",
"v@ c #7B7D80",
"w+ c #C5C5C6",
"y$ c #EAECED",
"[# c #EAECEE",
"V# c #EAECEF",
"{+ c #DEEAFF",
"i# c #CBCCCD",
"}$ c #3D3D3D",
"X. c #CBCCCF",
"o. c #F0F3F6",
"k$ c #D1D3D4",
"HX c #F6FAFA",
"Lo c #F6FAFB",
"zo c #BFCAE6",
"u# c #B2B3B3",
"ZX c #B2B3B4",
"eo c #A0AAC3",
"R. c #B2B3B5",
"[o c #FCFBFB",
"(O c #D7F8FF",
"_o c #939394",
"P$ c #B8BABC",
"/  c #B8BABD",
"!# c #9FA1A3",
"-  c #E9E9E9",
"H@ c #9FA1A4",
"P. c #E9DDDE",
"Zo c #DDE7FC",
"To c #EFFCFC",
"=O c #E3EEFC",
"aO c #EFFCFD",
"Do c #EFF0F0",
"<$ c #EFF0F1",
"0# c #EFF0F2",
"eX c #EFF6FC",
"@X c #ABA9AA",
"1o c #F5FDFD",
"O+ c #86888C",
"*@ c #D0C4C4",
"x. c #F5F7F9",
"@+ c #F5F7FA",
"6+ c #BEDFFF",
"7+ c #B2D1FF",
"AX c #B1B0B3",
")O c #DCFCFF",
".X c #B7B7B8",
"-. c #989797",
"R@ c #737679",
"sX c #BDBEBF",
"/# c #BDBEC0",
"]  c #E2E5E8",
"*o c #9E9E9F",
"e$ c #C3C5C6",
"*$ c #C3C5C7",
"eO c #D6E3FB",
"@% c #858585",
"># c #AAACAE",
"%  c #F4F4F3",
"uo c #F4FAFB",
"H. c #F4F4F4",
"0  c #F4F4F5",
"n$ c #8B8C8C",
"W. c #FAFBFB",
"i. c #FAFBFC",
"Q. c #DBDBDB",
"V  c #DBDBDC",
"OO c #C9DEFE",
" @ c #727377",
"U  c #E1E2E2",
"c  c #BCBBBC",
"g# c #E1E2E3",
"T  c #C2C2C2",
"A. c #A3A2A2",
"E@ c #7E8183",
" O c #EDFCFD",
"z  c #A3A2A3",
"I  c #C8C9CA",
"S# c #EDF0F3",
",O c #F3FDFD",
"R# c #CED0D2",
"!X c #E7EFFF",
"8X c #F3F7FA",
"L  c #8A8989",
"c@ c #65686B",
"_@ c #AFB0B2",
"L. c #B5B1B1",
"P# c #B5B7B9",
"1  c #FFFFFF",
"/. c #DAD8DA",
"Go c #969798",
";% c #080808",
"t+ c #969799",
"m. c #BBB2B2",
"XO c #E0F7FD",
"z# c #9C9EA0",
"&$ c #9C9EA2",
"U# c #E6E6E7",
"q  c #ECEDED",
"b# c #ECEDEE",
"_$ c #5E5E5E",
"p$ c #ECEDEF",
"|@ c #F2F4F4",
"Q  c #CDCDCE",
"t# c #F2F4F5",
"Xo c #F2FAFC",
"O$ c #F2F4F6",
"T. c #AEADAE",
"l+ c #A3C0FF",
"kX c #F8FBFB",
"bo c #F8FBFC",
"7o c #D3D4D8",
"-X c #F8FBFE",
">@ c #F8FBFF",
"Z+ c #AFC8FF",
"nO c #B4B4B6",
"^O c #CDEBFF",
"&# c #D9DBDD",
"l@ c #BABBBB",
"W$ c #BABBBC",
"IO c #C7D8FE",
"#o c #D9E1F3",
"Ro c #EBFCFC",
"No c #EBFCFD",
"X% c #828282",
"<O c #F1FDFD",
"A$ c #F1F1F0",
"8$ c #A7A9AB",
"O  c #F1F1F1",
"{X c #F1F7F9",
"n@ c #F1F1F2",
"|  c #88898A",
"R  c #F7F8F8",
"m+ c #F7F8FA",
":+ c #C0E0FF",
"<+ c #D2F5FF",
"RO c #69696C",
"aX c #D8D8D8",
"QO c #B4CCFF",
";# c #949799",
"!@ c #DEDFE0",
"h# c #DEDFE1",
"t@ c #BFBFC0",
"#$ c #C5C6C8",
"{# c #EAEDEF",
"`  c #EAEDF0",
"B@ c #EAEDF1",
"M# c #A6A6A6",
"A  c #817F80",
"k@ c #A6A6A8",
":o c #F0F4FC",
"Po c #F6FBFC",
"}+ c #F6FBFF",
"bO c #8D8D8F",
"U@ c #B2B4B6",
"8  c #FCFCFC",
">. c #FCFCFD",
"&% c #050505",
"hO c #D7F3FE",
"5X c #D7DBE3",
"e  c #E3E3E3",
"v. c #E3E3E4",
"uO c #E9FCFD",
"3@ c #7A7B7E",
"C+ c #D1E0FF",
"E. c #E9EAEB",
"]$ c #5B5B5B",
"sO c #EFFDFD",
"q# c #EFF1F2",
"2# c #EFEBEB",
"## c #EFF1F3",
"$# c #EFF1F4",
"j  c #ABAAAA",
"m$ c #D0D1D3",
"O. c #F5F8FA",
"'. c #F5F8FB",
"-$ c #B1B1B1",
"uX c #B1B1B3",
"W@ c #B7B8BA",
"`O c #E2FEFF",
"*O c #C4D5FA",
"Y@ c #BDBFC0",
"U+ c #BDBFC2",
"=@ c #9E9F9F",
"*% c #101010",
"H+ c #D6E4FF",
"S  c #7F7F7F",
"+@ c #A4A6A8",
"=# c #A4A6A9",
"X  c #EEEEEE",
",$ c #EEEEEF",
"t$ c #EEE2E3",
"zO c #E2ECFF",
"L+ c #858689",
"Uo c #F4FBFC",
"5$ c #F4F5F6",
"#+ c #D5D5D5",
"G@ c #8B8D90",
"xX c #FAFCFC",
"pX c #FAFCFE",
"kO c #BDD7FE",
"JO c #D5F3FE",
"9+ c #B1C9FF",
"Q@ c #DBDCDD",
"h  c #BCBCBC",
"VO c #DBF4FE",
"5. c #BCBCBD",
"~+ c #BCBCBE",
")  c #E1E3E6",
"T@ c #787B7D",
"`@ c #787B7E",
"!  c #9D9C9D",
"7$ c #C2C3C5",
"V@ c #E7EAED",
"1O c #EDFDFD",
"Q# c #C8CACB",
"(+ c #DBE8FF",
"y+ c #E7F0FF",
"UO c #A9AAAC",
"$O c #A9AAAD",
"9X c #F3F8FB",
"D  c #8A8A8A",
"5  c #F9F9F9",
"M$ c #F9F9FA",
"4+ c #CEEFFF",
"s  c #020202",
"_O c #E0FEFF",
"]+ c #B6CDFF",
"n. c #969293",
"4  c #E0E0E0",
"MO c #C2D5FE",
"H# c #9C9FA1",
"q. c #C1C0C1",
"$$ c #E6E7E8",
"CX c #C7C7C7",
"D@ c #7D7F82",
"b. c #C7C7C8",
"4# c #ECEEEF",
"o# c #ECEEF0",
" $ c #ECEEF1",
"x@ c #838689",
"Yo c #F2FBFC",
"EX c #F2FBFD",
"@. c #F2F5F8",
"k+ c #A9C8FF",
"J$ c #D3D5D6",
"<o c #F8FCFC",
"hX c #F8F6F7",
"J+ c #F8FCFF",
"0@ c #6A6D70",
"YO c #B4B5B7",
"co c #FEFDFC",
">o c #FEFDFD",
"`X c #CDD4E6",
"gX c #FEFDFE",
"H  c #959595",
"gO c #DFFBFE",
"z+ c #BBD1FF",
"{  c #BABCBE",
"po c #E5F6FC",
"iO c #EBFDFD",
"Bo c #E5F6FD",
"J# c #A1A3A5",
"*  c #EBEBEB",
"d  c #EBEBEC",
"Oo c #EBF7FD",
"i@ c #828386",
"JX c #F1F8F9",
"|+ c #F1F2F2",
"e# c #F1F2F3",
"r# c #F1F2F4",
"wX c #F1F8FC",
"%# c #F1F2F5",
"z$ c #D2D2D2",
"x  c #ADABAC",
"PX c #F7F9FA",
"j+ c #B4D3FF",
"OX c #F7F9FB",
"oX c #F7F9FC",
"vo c #FDFAFA",
"!$ c #B9B9B9",
"r. c #DEE0E2",
"Z  c #9A9999",
"ho c #E4E7E9",
"8@ c #C5C7C8",
"ko c #A0A0A2",
"=$ c #C5C7C9",
"Z@ c #C5C7CA",
"6o c #DEE6FA",
"Z$ c #F0EFEF",
"DX c #EAEEF7",
"r@ c #F0E3E3",
"#% c #878787",
"3# c #F0E3E4",
"g$ c #ACAEB0",
"TX c #F6FCFC",
"~# c #ACAEB1",
"i  c #F6F6F6",
"h$ c #F6F6F7",
"%+ c #8D8E90",
"}O c #C5E5FF",
";+ c #B9D7FF",
"&O c #D1D5DD",
"1. c #FCFDFD",
"I. c #FCFDFE",
"$% c #6E6E6E",
"lO c #B3CAFE",
"HO c #DDFBFE",
":# c #939598",
"   c #DDDDDD",
"0. c #DDDDDE",
"wO c #DDDDDF",
"(# c #E3E4E5",
"2O c #E9FDFD",
"a  c #C4C4C4",
"+X c #C4C4C5",
"v$ c #E9EBED",
"'  c #E9EBEE",
"K. c #A5A4A5",
"_# c #CACBCD",
" # c #EFECEC",
"o$ c #EFF2F4",
"L@ c #EFF2F5",
"WX c #EFF8FD",
"T# c #D0D2D4",
"}X c #F5F9FA",
"|$ c #424344",
"]. c #F5F9FB",
"=. c #8C8B8B",
"2@ c #B1B2B4",
"'+ c #ACC6FF",
"[O c #D6F7FF",
"K@ c #D6D9DC",
"@$ c #B7B9BB",
"u+ c #B8CEFF",
"'O c #E2FFFF",
"'o c #D0D8EC",
"h. c #98999A",
"p@ c #98999B",
"p# c #9EA0A3",
"*. c #C3C1C2",
"Vo c #DCECFD",
";  c #E8E8E8",
"y  c #E8E8E9",
"%@ c #EEEFEF",
"]@ c #EEEFF0",
"v  c #C9C8CA",
")$ c #606060",
"8# c #EEEFF1",
"-O c #F4FCFB",
"q@ c #85878A",
"e+ c #CFCFCF",
"mo c #F4FCFD",
"g  c #CFCFD0",
"x+ c #EEF5FF",
"l. c #F4F6F8",
"Ho c #CFCFD2",
"w. c #8B888A",
"I$ c #D5D6D7",
"*X c #FAFDFD",
"[@ c #D5D6D8",
"ZO c #E1FCFE",
"L$ c #BCBDBE",
"W  c #E1DEDF",
"I@ c #E1E4E7",
"{$ c #9D9D9D",
"K# c #C2C4C5",
"8o c #A3A4A6",
"%o c #A3A4A7",
"o% c #848484",
"~o c #E1EAFD",
"D$ c #F3F3F2",
"$  c #F3F3F3",
"0X c #F3F9FB",
"#@ c #F3F3F4",
"mX c #F3F9FD",
"/+ c #F3F9FF",
"lX c #F9FAFA",
"F. c #F9FAFB",
">+ c #C8E9FF",
",+ c #CEF0FF",
"s. c #F9FAFC",
"E+ c #DADADA",
"~O c #C8E3FF",
"1@ c #E0E1E1",
"n  c #E0E1E2",
"Ao c #E0E1E3",
"Jo c #CED8F3",
"N  c #C1C1C1",
"Y+ c #E6E8EA",
".$ c #ECEFF1",
"Z# c #ECEFF2",
":X c #C7C8CD",
" . c #A8A8A8",
"mO c #ECEFF4",
"WO c #E6EEFC",
">O c #F2FCFC",
"B$ c #CDCFD0",
"D. c #CDCFD1",
"^@ c #F2E4E4",
"vX c #F8FDFD",
"g. c #AEAFB1",
"d$ c #8F8F90",
"3  c None",
"M  c #FEFEFE",
"<. c #FEFEFF",
"f@ c #959698",
"9@ c #9B9DA0",
">  c #E5E5E5",
"I# c #E5E5E6",
"FO c #EBFEFE",
"`$ c #5D5D5D",
"u$ c #EBECEE",
"@o c #DFEAFD",
"&o c #EBECEF",
"y# c #F1F3F4",
"e@ c #F1EDED",
"$. c #F1F3F5",
">X c #ADACAD",
"2X c #D2D3D3",
"IX c #F7FAFA",
"/$ c #444445",
"%X c #F7EEF0",
"`+ c #AEC7FF",
"[X c #FDFBFB",
"jo c #9A9A9A",
"l$ c #BFC1C2",
"#X c #BFC1C5",
"ao c #DEEDFC",
"tO c #E4F4FC",
"W+ c #C5C2C2",
"O% c #818181",
":O c #F0FCFC",
"#  c #F0F0F0",
"1$ c #F0F0F1",
"MX c #F0F6FE",
"R+ c #F6F7F8",
"g+ c #C5E6FF",
"9O c #D7D7D7",
"K+ c #DDDEDE",
"%$ c #DDDEDF",
"NO c #C5DAFD",
"7O c #CBDBFE",
"b@ c #C4C5C6",
"6. c #C4C5C7",
"]# c #E9ECEE",
"B# c #E9ECEF",
"0+ c #E9F2FF",
"s@ c #ABACAE",
"F$ c #F5F4F4",
"Ko c #F5FAFB",
"J  c #8C8C8C",
",@ c #F5FAFF",
"6X c #F5F4F8",
"PO c #ACC7FE",
"7  c #FBFBFB",
"2+ c #D6F8FF",
"V. c #FBFBFC",
"3O c #E2FAFD",
"rO c #C4D7FD",
"oO c #D6ECFD",
"(@ c #E2E2E2",
"j@ c #797A7D",
"Co c #D0DFFE",
"!+ c #797A7E",
"~@ c #E8E9E9",
"M. c #E8E9EA",
"($ c #5A5A5A",
"j# c #C9C9C9",
"F@ c #7F8184",
"Q$ c #161313",
"E# c #EEEAEA",
"9# c #EEF0F1",
"@# c #EEF0F2",
"D# c #EEF0F3",
"xo c #E8EFFB",
";O c #F4FDFD",
"_. c #F4F7FA",
"A+ c #A5C3FF",
"(X c #B0B0B0",
"LO c #BDD9FE",
"6O c #BDD3FE",
"L# c #BCBEBF",
"SO c #E7FEFE",
"C$ c #EDEDEC",
"O@ c #A3A5A7",
".  c #EDEDED",
">$ c #EDEDEE",
"3o c #EDF9FD",
"'# c #EDE1E3",
".o c #F3FAFB",
"4$ c #F3F4F5",
"rX c #EDF3FD",
"n+ c #F3F4F6",
"@O c #EDF3FE",
"a# c #8A8C8F",
"$@ c #D4D4D4",
"F+ c #A4C0FF",
"s+ c #BCDCFF",
"zX c #F9FBFB",
"p. c #F9FBFC",
"~$ c #6B6C6C",
"a. c #F9FBFD",
"u@ c #717376",
")o c #BBBBBB",
"j. c #BBBBBC",
"f$ c #C1C2C4",
"z@ c #C7C9CA",
"2o c #F2FDFD",
"S$ c #F2F1F1",
"v# c #AEB0B2",
"q$ c #64686E",
"u  c #F8F8F8",
"U$ c #F8F8F9",
"2  c #010101",
"v+ c #8F9094",
"_+ c #B5CCFF",
"/@ c #DFDFDE",
"x# c #95979A",
"m@ c #DFDFDF",
"@@ c #E5E6E6",
"{@ c #E5E6E7",
"]o c #CDDCFC",
"tX c #DFE5F1",
"l  c #A19FA0",
"<  c #C6C6C6",
":$ c #EBEDED",
"do c #D9E4FB",
"`o c #C6C6C7",
"i$ c #EBEDEE",
"}# c #EBEDEF",
"X# c #EBEDF0",
"9$ c #CCCDCE",
"b+ c #CCCDCF",
"#. c #F1F4F7",
"TO c #ADADAE",
"UX c #F7FBFB",
"D+ c #AECEFF",
"YX c #F7FBFC",
"'X c #F1F4FC",
"Y. c #B3B4B5",
"VX c #B3B4B6",
"B+ c #8E8D90",
"/O c #D2F2FF",
"GX c #FDFCFC",
"F  c #949494",
"E$ c #B9BBBC",
"X@ c #B9BBBE",
"Qo c #D2E6FD",
"!o c #C6D8FD",
"-% c #0C0C0C",
"%% c #0C0C0D",
"[+ c #C6D8FF",
"/o c #9A9B9F",
"$+ c #7B7B7C",
"pO c #EAFCFD",
"=  c #EAEAEA",
":. c #EAEAEB",
"Mo c #F0FDFD",
"$X c #EAEAEF",
"2$ c #F0F1F2",
"w# c #F0F1F3",
"S@ c #87898C",
"X+ c #F0F7FF",
"b  c #D1D1D2",
"z. c #F6F8FA",
" + c #A7C4FF",
"KO c #CBE8FE",
"h@ c #6E7073",
":@ c #B8B8B9",
"o@ c #DDDFE0",
"S. c #B8B8BA",
"AO c #E3FEFE",
"H$ c #BEBFC1",
"Wo c #DDF1FD",
"G# c #C4C6C9",
"d@ c #A5A6A8",
"oo c #EFFAFC",
";$ c #EFE2E2",
"r+ c #868688",
"d# c #ABADAF",
"Io c #F5FBFC",
"p  c #F5F5F5",
"W# c #F5F5F6",
"|O c #B8D6FF",
")# c #B1B4B7",
"B. c #FBFCFC",
"u. c #FBFCFD",
";o c #CAD3E9",
"G+ c #B2C9FF",
"9. c #DCDCDC",
"R$ c #737474",
"3X c #BDBCBD",
"t  c #E2E3E4",
".O c #E8FCFD",
"c. c #C3C3C3",
"-# c #7F8285",
"8O c #C9CACC",
"X$ c #EEF1F3",
"F# c #EEF1F4",
"lo c #C9CACF",
"=o c #AAAAAC",
"|X c #F4F8F9",
"4X c #AAAAAE",
"`. c #F4F8FA",
"SX c #A4A9B6",
"{. c #F4F8FC",
"}. c #F4F8FE",
"*# c #B0B1B3",
"V+ c #F4F8FF",
" % c #222223",
"+O c #C3D5FE",
":  c #E7E7E7",
"w  c #E7E7E8",
"fX c #E1E6F0",
"K$ c #7E7F7F",
"g@ c #7E7F83",
"5# c #EDEEEF",
"6# c #EDEEF0",
"*+ c #E1ECFE",
"4o c #E7F3FE",
"N# c #EDE2E3",
"O# c #EDEEF1",
"2. c #CECECE",
"{o c #F3FBFC",
"(o c #F3F5F7",
"i+ c #A4C1FF",
",o c #F9FCFC",
"w@ c #D4D5D6",
"[$ c #464646",
"N$ c #D4D5D7",
"=X c #F9FCFE",
")@ c #B5B5B5",
"=+ c #B0C9FF",
"<# c #DADCDD",
"fo c #DADCE0",
"5@ c #BBBCBC",
"_X c #BBBCC0",
"3. c #9C9C9C",
"|. c #E0E3E8",
"wo c #BBBCC2",
"Y# c #C1C3C5",
" X c #A2A3A5",
"x$ c #ECEBEB",
"iX c #C7CACD",
"+% c #838383",
"N+ c #838384",
";@ c #838386",
"@  c #F2F2F1",
"jX c #F2F8F9",
"+  c #F2F2F2",
"^+ c #F2F2F3",
"yX c #A8AAAF",
"G. c #F8F9FA",
"5+ c #C7E8FF",
"N. c #F8F9FB",
"h+ c #C1E1FF",
"vO c #D9D9D9",
"cO c #8F9194",
"!O c #BBD4FF",
"]O c #DFFEFF",
"~X c #D3D8E5",
"~. c #BAB9BA",
"6@ c #DFE0E1",
"4O c #D9F1FE",
"I+ c #DFE0E3",
"0O c #C0C0C0",
"m# c #E5E7E7",
".. c #C0C0C2",
"Eo c #E5F9FD",
"}@ c #E5E7E8",
"f. c #E5E7E9",
"k  c #A1A0A1",
"+$ c #C6C7C8",
"io c #EBFAFC",
"&@ c #EBE8E8",
"|# c #EBEEF0",
"C# c #EBEEF1",
"$o c #C6C7CB",
"qo c #A7A7A9",
"QX c #EBF4FD",
"k# c #F1E3E3",
")X c #ADAEAF",
"e. c #ADAEB0",
"Q+ c #888183",
"no c #F7FCFC",
"(  c #D2D5D7",
"E  c #F7F6F6",
"c# c #B3B5B7",
"9  c #FDFDFD",
"y. c #FDFDFE",
"^  c #949597",
"BO c #D8EEFE",
",  c #E4E4E4",
"f# c #E4E4E5",
"dO c #EAFDFD",
"s# c #A0A3A5",
"9o c #EAEBEB",
"'$ c #5C5C5C",
"b$ c #EAEBED",
"5o c #DEE9FE",
";. c #CBCBCB",
"J. c #CBCBCC",
"a$ c #F0F2F3",
"M@ c #F0ECEC",
"T+ c #F0F2F4",
"P@ c #F0F2F5",
"j$ c #D1D2D3",
"^# c #D1D2D4",
"KX c #F6F9FA",
".% c #434344",
" o c #F6F9FB",
"S+ c #ADCCFF",
";X c #F6F9FF",
"to c #FCFAFA",
"7@ c #B8B9B9",
"G  c #999999",
"T$ c #BEC0C1",
"w$ c #BEC0C2",
"6$ c #9FA0A0",
"=% c #111111",
"go c #9FA0A3",
"o  c #EFEFEF",
",# c #EFEFF0",
".# c #EFE3E4",
"G$ c #868788",
"N@ c #EFE3E5",
"RX c #F5FCFC",
"7X c #EFE9EE",
"nX c #F5FCFD",
"7. c #F5F6F6",
"t. c #F5F6F7",
"f+ c #C4E5FF",
"M+ c #D6D6D6",
"&X c #FBFDFD",
"o+ c #D6D6D7",
"^o c #DCDDDE",
"^X c #BDBDBF",
"k. c #C3C4C6",
"_  c #E8EBEE",
"^. c #A4A4A4",
"K  c #858485",
"yo c #F4F9FA",
"[. c #F4F9FC",
"<@ c #F4F9FF",
"qO c #8B8B8D",
"6  c #FAFAFA",
"1+ c #D5F7FF",
"{O c #CFF0FF",
"Y  c #FAFAFB",
"B  c #030303",
"}  c #97999B",
"%. c #E1E1E1",
"r  c #E1E1E2",
")+ c #C3D6FF",
"4@ c #78797B",
"yO c #E7FAFD",
"&+ c #E7E8E8",
"C  c #C2C1C2",
"Y$ c #E7E8E9",
"#O c #C8C8C9",
"r$ c #EDE9E9",
"7# c #EDEFF0",
"+# c #EDEFF1",
"A# c #EDEFF2",
"'@ c #848789",
"}o c #F3FCFD",
"+. c #F3F6F9",
"8+ c #A4C2FF",
"p+ c #AAC9FF",
"cX c #F9FDFD",
"[  c #D4D6D9",
"l# c #B5B6B6",
"]X c #FFFEFD",
"FX c #FFFEFE",
"C@ c #DADDDF",
"P+ c #B5B6B9",
"0o c #969696",
"J@ c #BBBDBF",
"XX c #BBBDC0",
"fO c #E6FDFE",
"So c #9C9DA0",
"so c #D4E2FD",
"GO c #ECFEFE",
"~  c #7D7D7F",
"BX c #C1C4CC",
"&  c #ECECEC",
",X c #ECECED",
"+o c #E6F1FD",
"q+ c #838487",
"3$ c #F2F3F3",
"qX c #F2F9FB",
"Z. c #F2F3F4",
"s$ c #646464",
"U. c #F2F3F5",
"^$ c #898B8C",
"NX c #ECF2FE",
"`# c #D3D3D3",
".@ c #898B8E",
"LX c #F8FAFA",
"!. c #D3D3D4",
"). c #F8FAFB",
"d+ c #C1E2FF",
"a+ c #B5D4FF",
"d. c #F8FAFC",
"dX c #898B93",
"(. c #F8EEF0",
"0$ c #D9DADB",
"n# c #D9DADC",
"5O c #CDE4FE",
"CO c #DFF9FE",
"4. c #9B9A9B",
"V$ c #C0C1C2",
"++ c #E5E8EB",
"-o c #C0C1C6",
"&. c #A1A1A1",
"%O c #A1A1A2",
"c$ c #EBE9EA",
"Fo c #A7A8A8",
"|o c #F1FCFD",
"a@ c #A7A8AA",
"/X c #A7A8AB",
"ro c #EBEFF9",
"A@ c #ADAFB1",
"bX c #F7FDFD",
"m  c #F7F7F7",
"-+ c #AECAFF",
"3+ c #D2F4FF",
/* pixels */
"  . . . X X X X o o o O + @ # # O $ % + # o o X . . & * = - ; : > , < 1 2 3 3 3 3 3 3 3 3 3 3 3 ",
"4 5 5 6 6 6 7 7 8 9 7 0 q w e r r t y + 7 1 9 8 6 5 u i p $ O # X = a 1 s 3 3 3 3 3 3 3 3 3 3 3 ",
"  u 5 5 5 6 6 8 u d f g h j k l z x c v b n m M 8 7 5 u i p $ O o & N 1 B 3 3 3 3 3 3 3 3 3 3 3 ",
"  u u 6 5 6 6 q V C Z A S D F G H J K L z P I U 8 8 Y 5 u i p $ O X T 1 s 3 3 3 3 3 3 3 3 3 3 3 ",
"  u + e R E W Q ! ~ ^ / ( ) _ ` ' ] [ { } |  ...X.o.O.+.@.#.$.0 $ o T 1 2 3 3 3 3 3 3 3 3 3 3 3 ",
"  u %.&.o f *.=.-.;.:.R >.,.,.,.M <.<.1.O 2.3.4.5.6.7.8 6 5 R i p O T 1 8.3 3 3 3 3 3 3 3 3 3 3 ",
"9.m i o 0.q.w.e.r.t.1.y.>.u.i.p.a.s.d.d.a.d.f.g.h.j.k.l.z.x.l.u m + c.1 8.3 3 3 3 3 3 3 3 3 3 3 ",
"9.i u v.b.n.m.M.N.,.M 9 >.>.u.B.B.V.i.i.u.u.C.Z.j.A.S.D.u.F.G.5 u H.c.1 8.3 3 3 3 3 3 3 3 3 3 3 ",
"9.i * J.K.L.P.8 1 M 9 1.>.>.B.V.i.i.B.u.u.1.I.C.U.Y.T.R.E.>.W.6 5 p a 1 8.3 3 3 3 3 3 3 3 3 3 3 ",
"Q.i !.~.^./.(.1 y.1.u.i.s.).N.O._.`.`.'.].].[.{.}.|. X.XXXoXOXV.7 i a 1 8.3 3 3 3 3 3 3 3 3 3 3 ",
"9.:.+X@X#X$X%X,.M 9 9 8 8 8 W.W.W.W.B.B.&X*X*X=X-X;X:X>Xe.,XM 9 8 u <X1 8.3 3 3 3 3 3 3 3 3 3 3 ",
"1X2X3X4X5X6X7X8Xu.B.i.F.).z.8X8X`.`.`.`.9X0XqXwXeXrXtXyXuXiXpX9 9 5 <X1 8.3 3 3 3 3 3 3 3 3 3 3 ",
"aXsXT.dXfXgXhXjXkX8 8 8 V.6 lXzXzXxXxXxXcXvXbXnXmXMXNXBX.XVX<.M M 5 <X1 8.3 3 3 3 3 3 3 3 3 3 3 ",
"CXZXAXSXDXFXGXHXJXKXi.i.LXPXPXIX).).kXUXYXTXRXEXWXQX!X~X^X/Xt.1 M 6 <X1 8.3 3 3 3 3 3 3 3 3 3 3 ",
"(X)X_X`X'X]X[XB.`.{X}X).z.|XO.}X}X o].].]..oXoooOo+o@o#o$o%o&o1 1 7 < 1 8.3 3 3 3 3 3 3 3 3 3 3 ",
"*o=o-o;o:o>o[X9 8 zXHXLXLXkXkXzXzXxXxX,o<obX1o2o3o4o5o6o7o8o9o1 1 7 < 1 8.3 3 3 3 3 3 3 3 3 3 3 ",
"0oqowoeoro>otoi.i.i.OX`.`.yoyoyo].].].uo.oXoooiopoaosodofogoho1 1 7 < 1 8.3 3 3 3 3 3 3 3 3 3 3 ",
"jokolozoxocovo8 8 8 B.kXUXUXkXkXbo<o<onoTXmoMoNoBoVoCoZoAoSoDo1 1 7 < 1 8.3 3 3 3 3 3 3 3 3 3 3 ",
"FoGoHoJoZocovoB.V.V.i.uouoKoLoPoPoIoIoUoYoToRoEoWoQo!o~o^o/o(oM M 7 < 1 8.3 3 3 3 3 3 3 3 3 3 3 ",
")o_o`o'o]os.[ou.xXxXbo{oUoIoPoTXTXRXmo}o|o O.OXOoOOO+O@O#O$OI.9 M 7 < 1 8.3 3 3 3 3 3 3 3 3 3 3 ",
"2.%O=o&O*O=O-O;O;O1o}o:O>OmonX1o1o;O,O<O1O2O3O4O5O6O7OoX%o8O<.9 9 6 < 1 8.3 3 3 3 3 3 3 3 3 3 3 ",
"9O0OqOwOeOrOtOyOuOiOiOpO OaOMo<OMosO1OdOfOgOhOjOkOlOzOxOcO' OX>.9 6 < 1 8.3 3 3 3 3 3 3 3 3 3 3 ",
"vO1XbOnOmOMONOBOVOCOZOAOSODOFOGOFODOSOAOHOJOKOLOPOIO=XUOYO9 8 8 9 6 <X1 8.3 3 3 3 3 3 3 3 3 3 3 ",
"9OX TOROEOWOQO!O~O^O/O(O)O_O`O'O`O]O)O[O{O}O|O +.+X+o+O+++_.@+V.8 5 <X1 8.3 3 3 3 3 3 3 3 3 3 3 ",
"9OO #+$+%+&+*+=+-+;+:+>+,+<+1+2+1+3+4+5+6+7+8+9+0+= q+w+8 7 7 7 8 5 <X1 8.3 3 3 3 3 3 3 3 3 3 3 ",
"9O# o e+r+t+9oy+u+i+p+a+s+d+f+g+f+h+s+j+k+l+z+x+& c+v+b+n+x.m+7 8 5 <X1 8.3 3 3 3 3 3 3 3 3 3 3 ",
"M+o o ; c.N+B+%.V+C+Z+l+A+p+S+D+S+k+A+F+G+H+J+K+L+P+I+U+Y+T+R+7 7 u <X1 8.3 3 3 3 3 3 3 3 3 3 3 ",
"M+# E+&.e W+Q+!+~+^+/+(+)+_+`+'+`+]+[+{+}+|+nO @.@X@o@O@+@@@#@u 7 u <X1 8.3 3 3 3 3 3 3 3 3 3 3 ",
"M+o ; $@%@&@*@=@-@;@:@v.R+>@,@<@,@>@t.1@2@3@4@5@6@7@8@9@0@q@w@^+m u <X1 8.3 3 3 3 3 3 3 3 3 3 3 ",
"#+X o O Doe@r@1Xt@Goy@u@i@p@a@s@d@f@g@h@j@k@Q.p m e+l@z@x@c@v@b@n@^+T 1 8.3 3 3 3 3 3 3 3 3 3 3 ",
"#+X = m@X M@N@B@V@C@Z@A@} S@D@v@F@G@H@J@K@' L@P@o.I@U@Y@J@T@R@E@W@. Q@1 !@w 3 3 3 3 3 3 3 3 3 3 ",
"#+o aX3.~@M@^@# # O # * , /@E+E+/@> & + p p p i i p (@)@w+_@`@'@S@_@:.]@[@{@}@|@3 3 3 3 3 3 3 3 ",
"#+. & > X  #.#X#o#o#O#+#+#@#@#@#########$#T+T+%#$.$.P@&#*#z@=#-#;#:#>#y ,#<#1#1#|+3 3 3 3 3 3 3 ",
"#+. X # X 2#3#4#5#6#7#]@8#8#9#0#0#q#w#w#e#r#r#Z.U.t#n+y#w@u#i#p#a#+@s#d#f#%@!@g#h#3 3 3 3 3 3 3 ",
"$@. , j#* 2#k#o o o # # # O O O + + + $ $ #@H.H.p p i i + e+l#i#z#x#c#v#v#1#b#[@n#[@m#3 3 3 3 3 ",
"$@. E+M#; 2#N#B#B#V#V#` ` X#C#C#C#Z#Z#Z#A#S#S#D#F#F#$#L@P@B#G#:@i#H#J#K#L#P#I#U#Y#T#R#3 3 3 3 3 ",
"$@& & & . E#r@X X %@o o # # # O O O + + + $ $ #@H.H.p p W#i o <Xj.Q#!#~#^#8O/#(#g#)#_#8O3 3 3 3 ",
"`#* & X q E#'#]#]#[#V#{#}#X#X#|# $ $.$A#A#A#D#D#X$##$#o$T+P@O$,XN l@+$O@@$6@[@#$$$%$&$*$=$3 3 3 ",
"`#& 9.-$&+E#;$:$b#b#>$5#5#,$]@]@Do<$<$1$2$2$n@e#e#3$Z.Z.4$4$5$i & h 6$7$8$Y#b#n 9$w 0$q$w$e$3 3 ",
"`#* m@)o~@r$t$y$y$u$i$i$p$p$4#6#6#7#8#8#9#0#0#q#w#w#a$r#r#y#U.7.i ; s$d$f$g$_#h$$$j${@k$1 @$l$3 ",
"z$= * . * x$c$v$b$b$[#u$u$}#}#p$o#o#6#+#+#+#@#@#@#####w#T+T+y#p i H.M#8.n$l$2@m$M$M.N$I#B$1 V$3 ",
"z$= = * * * & & C$. . X X X o o Z$# # A$O O S$+ + D$$ $ H.H.F$p p $ a 8.2 G$H$P#J$6 M.0$g#P#W@3 ",
"z$- = = * * * & & . . . X X X o o o # # # O O O + + + $ $ H.H.H.p $ c.1 8.8.K$L$P$I$U$Y$!@l$T$3 ",
"z$- = * * * & & . . . X X X o o o # # O O O + + + $ $ $ H.H.H.p p $ a 1 8.8.8.R$E${ N$w W$3$Q$3 ",
"CXQ.Q.Q.9.9.9.9.      1X1X1Xm@m@m@4 4 4 %.%.%.(@(@(@e e e e , , , , !$1 8.8.8.8.~$R.O@^$8./$p@3 ",
"($)$_$_$_$_$_$`$`$'$'$'$'$'$'$'$'$'$'$]$]$]$]$]$($($($($($($($($($`$[${$8.8.8.8.8.}$|$8. %.%8.3 ",
"X%o%O%O%O%O%+%o%+%X%+%o%@%o%@%@%o%o%o%o%o%o%o%+%+%+%+%+%+%+%+%+%+%#%$%e 8.8.8.8.8.8.8.8.%%8.3 3 ",
"&%*%=%=%=%=%-%;%;%;%;%s 8.8.8.8.8.8.8.8.8.8.8.8.8.8.8.8.8.8.8.8.8.8.8.8.8.8.8.8.8.8.8.8.8.3 3 3 "
};
